<svg width="133" height="252" viewBox="0 0 133 252" fill="none" xmlns="http://www.w3.org/2000/svg">
<rect x="0.5" y="0.5" width="132" height="251" rx="19.5" fill="white"/>
<g clip-path="url(#clip0)">
<path d="M42.4893 52.4526C42.8716 48.8006 43.8568 47.533 47.768 47.4481H73.8095C93.409 47.7229 96.6669 52.1558 89.142 73.5434C89.142 73.5434 86.1879 81.7402 79.792 86.4123C77.6445 87.9603 77.9204 89.3007 79.792 92.1318L85.7745 102.498C88.1816 106.651 88.3013 108.355 82.9592 108.575H42.4893C38.7216 108.432 37.6826 107.576 38.2663 104.286L42.4893 52.4526Z" fill="#C4C4C4" stroke="black" stroke-width="3"/>
<path d="M80.5397 48.163L65.4075 65.679C64.5465 67.2622 63.314 67.6845 60.1288 67.8238H55.9058C51.1959 67.7576 48.8164 67.972 49.2195 72.8284V95.7065C50.3506 103.909 52.0002 106.137 55.9058 107.86C61.8303 110.397 61.6928 108.575 61.6928 108.575C61.6928 108.575 61.7526 105.955 60.6371 104.643C59.5215 103.332 60.1033 96.4377 60.6371 93.5617C61.1709 90.6857 63.252 88.5571 65.4075 86.0548C67.5629 83.5525 66.4193 81.0502 67.475 79.9778C68.5307 78.9054 92.6611 54.9549 92.6611 54.9549C90.4239 50.3669 87.8407 48.2972 80.5397 48.163Z" fill="black" stroke="black" stroke-width="3"/>
<path d="M44.5688 140.941H41.897V145.543H40.3892V134.168H44.1548C45.436 134.168 46.4204 134.459 47.1079 135.043C47.8006 135.626 48.147 136.475 48.147 137.589C48.147 138.298 47.9543 138.915 47.5688 139.441C47.1886 139.967 46.6574 140.36 45.9751 140.621L48.647 145.449V145.543H47.0376L44.5688 140.941ZM41.897 139.714H44.2017C44.9465 139.714 45.5376 139.522 45.9751 139.136C46.4178 138.751 46.6392 138.235 46.6392 137.589C46.6392 136.886 46.4282 136.347 46.0063 135.972C45.5897 135.597 44.9855 135.407 44.1938 135.402H41.897V139.714ZM58.2642 134.168V141.902C58.259 142.975 57.9204 143.852 57.2485 144.535C56.5819 145.217 55.6756 145.6 54.5298 145.683L54.1313 145.699C52.8866 145.699 51.8944 145.363 51.1548 144.691C50.4152 144.019 50.0402 143.095 50.0298 141.918V134.168H51.5142V141.871C51.5142 142.694 51.7407 143.334 52.1938 143.793C52.647 144.246 53.2928 144.472 54.1313 144.472C54.9803 144.472 55.6287 144.246 56.0767 143.793C56.5298 143.339 56.7563 142.701 56.7563 141.878V134.168H58.2642ZM69.3735 145.543H67.8657L62.1392 136.777V145.543H60.6313V134.168H62.1392L67.8813 142.972V134.168H69.3735V145.543ZM73.3813 145.543H71.936V137.089H73.3813V145.543ZM71.8188 134.847C71.8188 134.613 71.8892 134.415 72.0298 134.253C72.1756 134.092 72.3892 134.011 72.6704 134.011C72.9517 134.011 73.1652 134.092 73.311 134.253C73.4569 134.415 73.5298 134.613 73.5298 134.847C73.5298 135.082 73.4569 135.277 73.311 135.433C73.1652 135.589 72.9517 135.668 72.6704 135.668C72.3892 135.668 72.1756 135.589 72.0298 135.433C71.8892 135.277 71.8188 135.082 71.8188 134.847ZM80.6235 143.3C80.6235 142.91 80.4751 142.608 80.1782 142.394C79.8866 142.175 79.3735 141.988 78.6392 141.832C77.91 141.675 77.3293 141.488 76.897 141.269C76.4699 141.05 76.1522 140.79 75.9438 140.488C75.7407 140.186 75.6392 139.826 75.6392 139.41C75.6392 138.717 75.9308 138.131 76.5142 137.652C77.1027 137.173 77.8527 136.933 78.7642 136.933C79.7225 136.933 80.4985 137.181 81.0923 137.675C81.6912 138.17 81.9907 138.803 81.9907 139.574H80.5376C80.5376 139.178 80.3683 138.837 80.0298 138.55C79.6965 138.264 79.2746 138.121 78.7642 138.121C78.2381 138.121 77.8267 138.235 77.5298 138.464C77.2329 138.694 77.0845 138.993 77.0845 139.363C77.0845 139.712 77.2225 139.975 77.4985 140.152C77.7746 140.329 78.272 140.498 78.9907 140.66C79.7147 140.821 80.3006 141.014 80.7485 141.238C81.1965 141.462 81.5272 141.733 81.7407 142.05C81.9595 142.363 82.0688 142.746 82.0688 143.199C82.0688 143.954 81.7668 144.561 81.1626 145.019C80.5584 145.472 79.7746 145.699 78.811 145.699C78.134 145.699 77.535 145.579 77.0142 145.339C76.4933 145.1 76.0845 144.766 75.7876 144.339C75.4959 143.907 75.3501 143.441 75.3501 142.941H76.7954C76.8215 143.425 77.0142 143.811 77.3735 144.097C77.7381 144.378 78.2173 144.519 78.811 144.519C79.3579 144.519 79.7954 144.41 80.1235 144.191C80.4569 143.967 80.6235 143.67 80.6235 143.3ZM85.522 145.543H84.0767V137.089H85.522V145.543ZM83.9595 134.847C83.9595 134.613 84.0298 134.415 84.1704 134.253C84.3162 134.092 84.5298 134.011 84.811 134.011C85.0923 134.011 85.3058 134.092 85.4517 134.253C85.5975 134.415 85.6704 134.613 85.6704 134.847C85.6704 135.082 85.5975 135.277 85.4517 135.433C85.3058 135.589 85.0923 135.668 84.811 135.668C84.5298 135.668 84.3162 135.589 84.1704 135.433C84.0298 135.277 83.9595 135.082 83.9595 134.847ZM91.2329 144.519C91.7485 144.519 92.1991 144.363 92.5845 144.05C92.9699 143.738 93.1834 143.347 93.2251 142.878H94.5923C94.5662 143.363 94.3996 143.824 94.0923 144.261C93.785 144.699 93.3735 145.048 92.8579 145.308C92.3475 145.569 91.8058 145.699 91.2329 145.699C90.0819 145.699 89.1652 145.316 88.4829 144.55C87.8058 143.78 87.4673 142.727 87.4673 141.394V141.152C87.4673 140.329 87.6183 139.597 87.9204 138.957C88.2225 138.316 88.6548 137.819 89.2173 137.464C89.785 137.11 90.4543 136.933 91.2251 136.933C92.173 136.933 92.9595 137.217 93.5845 137.785C94.2147 138.352 94.5506 139.089 94.5923 139.996H93.2251C93.1834 139.449 92.9751 139.001 92.6001 138.652C92.2303 138.298 91.772 138.121 91.2251 138.121C90.4907 138.121 89.9204 138.386 89.5142 138.918C89.1131 139.444 88.9126 140.207 88.9126 141.207V141.48C88.9126 142.454 89.1131 143.204 89.5142 143.73C89.9152 144.256 90.4881 144.519 91.2329 144.519Z" fill="black"/>
<rect x="29.0574" y="38.224" width="73.0131" height="79.9331" rx="6.5" stroke="black" stroke-width="3"/>
<line x1="53.5063" y1="36.6537" x2="53.5063" y2="27.4997" stroke="black" stroke-width="3" stroke-linecap="round" stroke-linejoin="round"/>
<line x1="47.1719" y1="36.6537" x2="47.1719" y2="27.4997" stroke="black" stroke-width="3" stroke-linecap="round" stroke-linejoin="round"/>
<line x1="40.8376" y1="36.6537" x2="40.8376" y2="27.4997" stroke="black" stroke-width="3" stroke-linecap="round" stroke-linejoin="round"/>
<line x1="34.5032" y1="36.6537" x2="34.5032" y2="27.4997" stroke="black" stroke-width="3" stroke-linecap="round" stroke-linejoin="round"/>
<line x1="78.844" y1="36.6537" x2="78.844" y2="27.4997" stroke="black" stroke-width="3" stroke-linecap="round" stroke-linejoin="round"/>
<line x1="72.5098" y1="36.6537" x2="72.5098" y2="27.4997" stroke="black" stroke-width="3" stroke-linecap="round" stroke-linejoin="round"/>
<line x1="66.1753" y1="36.6537" x2="66.1753" y2="27.4997" stroke="black" stroke-width="3" stroke-linecap="round" stroke-linejoin="round"/>
<line x1="59.8406" y1="36.6536" x2="59.8406" y2="27.4996" stroke="black" stroke-width="3" stroke-linecap="round" stroke-linejoin="round"/>
<line x1="97.1436" y1="36.6537" x2="97.1436" y2="27.4997" stroke="black" stroke-width="3" stroke-linecap="round" stroke-linejoin="round"/>
<line x1="90.8096" y1="36.6537" x2="90.8096" y2="27.4997" stroke="black" stroke-width="3" stroke-linecap="round" stroke-linejoin="round"/>
<line x1="84.4749" y1="36.6537" x2="84.4749" y2="27.4997" stroke="black" stroke-width="3" stroke-linecap="round" stroke-linejoin="round"/>
<line x1="53.5063" y1="128.881" x2="53.5063" y2="119.727" stroke="black" stroke-width="3" stroke-linecap="round" stroke-linejoin="round"/>
<line x1="47.1719" y1="128.881" x2="47.1719" y2="119.727" stroke="black" stroke-width="3" stroke-linecap="round" stroke-linejoin="round"/>
<line x1="40.8376" y1="128.881" x2="40.8376" y2="119.727" stroke="black" stroke-width="3" stroke-linecap="round" stroke-linejoin="round"/>
<line x1="34.5032" y1="128.881" x2="34.5032" y2="119.727" stroke="black" stroke-width="3" stroke-linecap="round" stroke-linejoin="round"/>
<line x1="78.844" y1="128.881" x2="78.844" y2="119.727" stroke="black" stroke-width="3" stroke-linecap="round" stroke-linejoin="round"/>
<line x1="72.5098" y1="128.881" x2="72.5098" y2="119.727" stroke="black" stroke-width="3" stroke-linecap="round" stroke-linejoin="round"/>
<line x1="66.1753" y1="128.881" x2="66.1753" y2="119.727" stroke="black" stroke-width="3" stroke-linecap="round" stroke-linejoin="round"/>
<line x1="59.8406" y1="128.881" x2="59.8406" y2="119.727" stroke="black" stroke-width="3" stroke-linecap="round" stroke-linejoin="round"/>
<line x1="97.1436" y1="128.881" x2="97.1436" y2="119.727" stroke="black" stroke-width="3" stroke-linecap="round" stroke-linejoin="round"/>
<line x1="90.8096" y1="128.881" x2="90.8096" y2="119.727" stroke="black" stroke-width="3" stroke-linecap="round" stroke-linejoin="round"/>
<line x1="84.4749" y1="128.881" x2="84.4749" y2="119.727" stroke="black" stroke-width="3" stroke-linecap="round" stroke-linejoin="round"/>
<line x1="112.465" y1="89.8264" x2="103.5" y2="89.8264" stroke="black" stroke-width="3" stroke-linecap="round" stroke-linejoin="round"/>
<line x1="112.465" y1="96.2608" x2="103.5" y2="96.2608" stroke="black" stroke-width="3" stroke-linecap="round" stroke-linejoin="round"/>
<line x1="112.465" y1="102.695" x2="103.5" y2="102.695" stroke="black" stroke-width="3" stroke-linecap="round" stroke-linejoin="round"/>
<line x1="112.465" y1="109.13" x2="103.5" y2="109.13" stroke="black" stroke-width="3" stroke-linecap="round" stroke-linejoin="round"/>
<line x1="112.465" y1="64.0884" x2="103.5" y2="64.0884" stroke="black" stroke-width="3" stroke-linecap="round" stroke-linejoin="round"/>
<line x1="112.465" y1="70.5229" x2="103.5" y2="70.5229" stroke="black" stroke-width="3" stroke-linecap="round" stroke-linejoin="round"/>
<line x1="112.465" y1="76.9573" x2="103.5" y2="76.9573" stroke="black" stroke-width="3" stroke-linecap="round" stroke-linejoin="round"/>
<line x1="112.465" y1="83.3918" x2="103.5" y2="83.3918" stroke="black" stroke-width="3" stroke-linecap="round" stroke-linejoin="round"/>
<line x1="112.465" y1="45.5001" x2="103.5" y2="45.5001" stroke="black" stroke-width="3" stroke-linecap="round" stroke-linejoin="round"/>
<line x1="112.465" y1="51.9346" x2="103.5" y2="51.9346" stroke="black" stroke-width="3" stroke-linecap="round" stroke-linejoin="round"/>
<line x1="112.465" y1="58.3689" x2="103.5" y2="58.3689" stroke="black" stroke-width="3" stroke-linecap="round" stroke-linejoin="round"/>
<line x1="27.4648" y1="90.4146" x2="18.4998" y2="90.4146" stroke="black" stroke-width="3" stroke-linecap="round" stroke-linejoin="round"/>
<line x1="27.4648" y1="96.8491" x2="18.4998" y2="96.8491" stroke="black" stroke-width="3" stroke-linecap="round" stroke-linejoin="round"/>
<line x1="27.4648" y1="103.284" x2="18.4998" y2="103.284" stroke="black" stroke-width="3" stroke-linecap="round" stroke-linejoin="round"/>
<line x1="27.4648" y1="109.718" x2="18.4998" y2="109.718" stroke="black" stroke-width="3" stroke-linecap="round" stroke-linejoin="round"/>
<line x1="27.4648" y1="64.6768" x2="18.4998" y2="64.6768" stroke="black" stroke-width="3" stroke-linecap="round" stroke-linejoin="round"/>
<line x1="27.4648" y1="71.1112" x2="18.4998" y2="71.1112" stroke="black" stroke-width="3" stroke-linecap="round" stroke-linejoin="round"/>
<line x1="27.4648" y1="77.5457" x2="18.4998" y2="77.5457" stroke="black" stroke-width="3" stroke-linecap="round" stroke-linejoin="round"/>
<line x1="27.4648" y1="83.9802" x2="18.4998" y2="83.9802" stroke="black" stroke-width="3" stroke-linecap="round" stroke-linejoin="round"/>
<line x1="27.4648" y1="46.0883" x2="18.4998" y2="46.0883" stroke="black" stroke-width="3" stroke-linecap="round" stroke-linejoin="round"/>
<line x1="27.4648" y1="52.5228" x2="18.4998" y2="52.5228" stroke="black" stroke-width="3" stroke-linecap="round" stroke-linejoin="round"/>
<line x1="27.4648" y1="58.9572" x2="18.4998" y2="58.9572" stroke="black" stroke-width="3" stroke-linecap="round" stroke-linejoin="round"/>
</g>
<rect x="17.25" y="164.25" width="99.5" height="16.5" rx="8.25" stroke="black" stroke-width="0.5"/>
<path d="M54.3188 172.028H52.4702V173.54H54.6177V174H51.9077V169.734H54.5884V170.197H52.4702V171.568H54.3188V172.028ZM55.7456 170.83L55.7632 171.229C56.0054 170.924 56.3218 170.771 56.7124 170.771C57.3823 170.771 57.7202 171.149 57.7261 171.905V174H57.1841V171.902C57.1821 171.674 57.1294 171.505 57.0259 171.396C56.9243 171.286 56.7651 171.231 56.5483 171.231C56.3726 171.231 56.2183 171.278 56.0854 171.372C55.9526 171.466 55.8491 171.589 55.7749 171.741V174H55.2329V170.83H55.7456ZM59.2788 170.062V170.83H59.8706V171.249H59.2788V173.215C59.2788 173.342 59.3052 173.438 59.3579 173.502C59.4106 173.564 59.5005 173.596 59.6274 173.596C59.6899 173.596 59.7759 173.584 59.8853 173.561V174C59.7427 174.039 59.604 174.059 59.4692 174.059C59.227 174.059 59.0444 173.985 58.9214 173.839C58.7983 173.692 58.7368 173.484 58.7368 173.215V171.249H58.1597V170.83H58.7368V170.062H59.2788ZM61.8218 174.059C61.3921 174.059 61.0425 173.918 60.7729 173.637C60.5034 173.354 60.3686 172.976 60.3686 172.503V172.403C60.3686 172.089 60.4282 171.809 60.5474 171.562C60.6685 171.314 60.8364 171.121 61.0513 170.982C61.2681 170.842 61.5024 170.771 61.7544 170.771C62.1665 170.771 62.4868 170.907 62.7153 171.179C62.9438 171.45 63.0581 171.839 63.0581 172.345V172.57H60.9106C60.9185 172.883 61.0093 173.136 61.1831 173.329C61.3589 173.521 61.5815 173.616 61.8511 173.616C62.0425 173.616 62.2046 173.577 62.3374 173.499C62.4702 173.421 62.5864 173.317 62.686 173.188L63.0171 173.446C62.7515 173.854 62.353 174.059 61.8218 174.059ZM61.7544 171.217C61.5356 171.217 61.352 171.297 61.2036 171.457C61.0552 171.615 60.9634 171.838 60.9282 172.125H62.5161V172.084C62.5005 171.809 62.4263 171.596 62.2935 171.445C62.1606 171.293 61.981 171.217 61.7544 171.217ZM65.2202 171.316C65.1382 171.303 65.0493 171.296 64.9536 171.296C64.5981 171.296 64.3569 171.447 64.23 171.75V174H63.688V170.83H64.2153L64.2241 171.196C64.4019 170.913 64.6538 170.771 64.98 170.771C65.0854 170.771 65.1655 170.785 65.2202 170.812V171.316ZM69.7056 172.028H67.8569V173.54H70.0044V174H67.2944V169.734H69.9751V170.197H67.8569V171.568H69.7056V172.028ZM71.1294 170.83L71.144 171.182C71.3765 170.908 71.6899 170.771 72.0845 170.771C72.5278 170.771 72.8296 170.941 72.9897 171.281C73.0952 171.129 73.2319 171.006 73.3999 170.912C73.5698 170.818 73.77 170.771 74.0005 170.771C74.6958 170.771 75.0493 171.14 75.061 171.876V174H74.519V171.908C74.519 171.682 74.4673 171.513 74.3638 171.401C74.2603 171.288 74.0864 171.231 73.8423 171.231C73.6411 171.231 73.4741 171.292 73.3413 171.413C73.2085 171.532 73.1313 171.693 73.1099 171.896V174H72.5649V171.923C72.5649 171.462 72.3394 171.231 71.8882 171.231C71.5327 171.231 71.2895 171.383 71.1587 171.686V174H70.6167V170.83H71.1294ZM77.8384 174C77.8071 173.938 77.7817 173.826 77.7622 173.666C77.5103 173.928 77.2095 174.059 76.8599 174.059C76.5474 174.059 76.2905 173.971 76.0894 173.795C75.8901 173.617 75.7905 173.393 75.7905 173.121C75.7905 172.791 75.9155 172.535 76.1655 172.354C76.4175 172.17 76.771 172.078 77.2261 172.078H77.7534V171.829C77.7534 171.64 77.6968 171.489 77.5835 171.378C77.4702 171.265 77.3032 171.208 77.0825 171.208C76.8892 171.208 76.727 171.257 76.5962 171.354C76.4653 171.452 76.3999 171.57 76.3999 171.709H75.855C75.855 171.551 75.9106 171.398 76.022 171.252C76.1353 171.104 76.2876 170.986 76.479 170.9C76.6724 170.814 76.8843 170.771 77.1147 170.771C77.48 170.771 77.7661 170.863 77.9731 171.047C78.1802 171.229 78.2876 171.479 78.2954 171.8V173.259C78.2954 173.55 78.3325 173.781 78.4067 173.953V174H77.8384ZM76.939 173.587C77.1089 173.587 77.27 173.543 77.4224 173.455C77.5747 173.367 77.6851 173.253 77.7534 173.112V172.462H77.3286C76.6645 172.462 76.3325 172.656 76.3325 173.045C76.3325 173.215 76.3892 173.348 76.5024 173.443C76.6157 173.539 76.7612 173.587 76.939 173.587ZM79.7339 174H79.1919V170.83H79.7339V174ZM79.1479 169.989C79.1479 169.901 79.1743 169.827 79.227 169.767C79.2817 169.706 79.3618 169.676 79.4673 169.676C79.5728 169.676 79.6528 169.706 79.7075 169.767C79.7622 169.827 79.7895 169.901 79.7895 169.989C79.7895 170.077 79.7622 170.15 79.7075 170.209C79.6528 170.268 79.5728 170.297 79.4673 170.297C79.3618 170.297 79.2817 170.268 79.227 170.209C79.1743 170.15 79.1479 170.077 79.1479 169.989ZM81.1929 174H80.6509V169.5H81.1929V174Z" fill="black"/>
<rect x="17.25" y="188.25" width="99.5" height="16.5" rx="8.25" stroke="black" stroke-width="0.5"/>
<path d="M48.4976 196.028H46.6489V197.54H48.7964V198H46.0864V193.734H48.7671V194.197H46.6489V195.568H48.4976V196.028ZM49.9243 194.83L49.9419 195.229C50.1841 194.924 50.5005 194.771 50.8911 194.771C51.561 194.771 51.8989 195.149 51.9048 195.905V198H51.3628V195.902C51.3608 195.674 51.3081 195.505 51.2046 195.396C51.103 195.286 50.9438 195.231 50.727 195.231C50.5513 195.231 50.397 195.278 50.2642 195.372C50.1313 195.466 50.0278 195.589 49.9536 195.741V198H49.4116V194.83H49.9243ZM53.4575 194.062V194.83H54.0493V195.249H53.4575V197.215C53.4575 197.342 53.4839 197.438 53.5366 197.502C53.5894 197.564 53.6792 197.596 53.8061 197.596C53.8686 197.596 53.9546 197.584 54.064 197.561V198C53.9214 198.039 53.7827 198.059 53.6479 198.059C53.4058 198.059 53.2231 197.985 53.1001 197.839C52.977 197.692 52.9155 197.484 52.9155 197.215V195.249H52.3384V194.83H52.9155V194.062H53.4575ZM56.0005 198.059C55.5708 198.059 55.2212 197.918 54.9517 197.637C54.6821 197.354 54.5474 196.976 54.5474 196.503V196.403C54.5474 196.089 54.6069 195.809 54.7261 195.562C54.8472 195.314 55.0151 195.121 55.23 194.982C55.4468 194.842 55.6811 194.771 55.9331 194.771C56.3452 194.771 56.6655 194.907 56.894 195.179C57.1226 195.45 57.2368 195.839 57.2368 196.345V196.57H55.0894C55.0972 196.883 55.188 197.136 55.3618 197.329C55.5376 197.521 55.7603 197.616 56.0298 197.616C56.2212 197.616 56.3833 197.577 56.5161 197.499C56.6489 197.421 56.7651 197.317 56.8647 197.188L57.1958 197.446C56.9302 197.854 56.5317 198.059 56.0005 198.059ZM55.9331 195.217C55.7144 195.217 55.5308 195.297 55.3823 195.457C55.2339 195.615 55.1421 195.838 55.1069 196.125H56.6948V196.084C56.6792 195.809 56.605 195.596 56.4722 195.445C56.3394 195.293 56.1597 195.217 55.9331 195.217ZM59.3989 195.316C59.3169 195.303 59.228 195.296 59.1323 195.296C58.7769 195.296 58.5356 195.447 58.4087 195.75V198H57.8667V194.83H58.394L58.4028 195.196C58.5806 194.913 58.8325 194.771 59.1587 194.771C59.2642 194.771 59.3442 194.785 59.3989 194.812V195.316ZM62.0356 196.33V198H61.4731V193.734H63.0464C63.5132 193.734 63.8784 193.854 64.1421 194.092C64.4077 194.33 64.5405 194.646 64.5405 195.038C64.5405 195.452 64.4106 195.771 64.1509 195.996C63.8931 196.219 63.5229 196.33 63.0405 196.33H62.0356ZM62.0356 195.87H63.0464C63.3472 195.87 63.5776 195.8 63.7378 195.659C63.8979 195.517 63.978 195.312 63.978 195.044C63.978 194.79 63.8979 194.587 63.7378 194.435C63.5776 194.282 63.3579 194.203 63.0786 194.197H62.0356V195.87ZM67.0952 198C67.064 197.938 67.0386 197.826 67.019 197.666C66.7671 197.928 66.4663 198.059 66.1167 198.059C65.8042 198.059 65.5474 197.971 65.3462 197.795C65.147 197.617 65.0474 197.393 65.0474 197.121C65.0474 196.791 65.1724 196.535 65.4224 196.354C65.6743 196.17 66.0278 196.078 66.4829 196.078H67.0103V195.829C67.0103 195.64 66.9536 195.489 66.8403 195.378C66.727 195.265 66.5601 195.208 66.3394 195.208C66.146 195.208 65.9839 195.257 65.853 195.354C65.7222 195.452 65.6567 195.57 65.6567 195.709H65.1118C65.1118 195.551 65.1675 195.398 65.2788 195.252C65.3921 195.104 65.5444 194.986 65.7358 194.9C65.9292 194.814 66.1411 194.771 66.3716 194.771C66.7368 194.771 67.0229 194.863 67.23 195.047C67.437 195.229 67.5444 195.479 67.5522 195.8V197.259C67.5522 197.55 67.5894 197.781 67.6636 197.953V198H67.0952ZM66.1958 197.587C66.3657 197.587 66.5269 197.543 66.6792 197.455C66.8315 197.367 66.9419 197.253 67.0103 197.112V196.462H66.5854C65.9214 196.462 65.5894 196.656 65.5894 197.045C65.5894 197.215 65.646 197.348 65.7593 197.443C65.8726 197.539 66.0181 197.587 66.1958 197.587ZM70.2476 197.159C70.2476 197.013 70.1919 196.899 70.0806 196.819C69.9712 196.737 69.7788 196.667 69.5034 196.608C69.23 196.55 69.0122 196.479 68.8501 196.397C68.6899 196.315 68.5708 196.218 68.4927 196.104C68.4165 195.991 68.3784 195.856 68.3784 195.7C68.3784 195.44 68.4878 195.221 68.7065 195.041C68.9272 194.861 69.2085 194.771 69.5503 194.771C69.9097 194.771 70.2007 194.864 70.4233 195.05C70.6479 195.235 70.7603 195.473 70.7603 195.762H70.2153C70.2153 195.613 70.1519 195.485 70.0249 195.378C69.8999 195.271 69.7417 195.217 69.5503 195.217C69.353 195.217 69.1987 195.26 69.0874 195.346C68.9761 195.432 68.9204 195.544 68.9204 195.683C68.9204 195.813 68.9722 195.912 69.0757 195.979C69.1792 196.045 69.3657 196.108 69.6353 196.169C69.9067 196.229 70.1265 196.302 70.2944 196.386C70.4624 196.47 70.5864 196.571 70.6665 196.69C70.7485 196.808 70.7895 196.951 70.7895 197.121C70.7895 197.404 70.6763 197.632 70.4497 197.804C70.2231 197.974 69.9292 198.059 69.5679 198.059C69.314 198.059 69.0894 198.014 68.894 197.924C68.6987 197.834 68.5454 197.709 68.4341 197.549C68.3247 197.387 68.27 197.212 68.27 197.024H68.812C68.8218 197.206 68.894 197.351 69.0288 197.458C69.1655 197.563 69.3452 197.616 69.5679 197.616C69.7729 197.616 69.937 197.575 70.0601 197.493C70.1851 197.409 70.2476 197.298 70.2476 197.159ZM73.3413 197.159C73.3413 197.013 73.2856 196.899 73.1743 196.819C73.0649 196.737 72.8726 196.667 72.5972 196.608C72.3237 196.55 72.106 196.479 71.9438 196.397C71.7837 196.315 71.6645 196.218 71.5864 196.104C71.5103 195.991 71.4722 195.856 71.4722 195.7C71.4722 195.44 71.5815 195.221 71.8003 195.041C72.021 194.861 72.3022 194.771 72.644 194.771C73.0034 194.771 73.2944 194.864 73.5171 195.05C73.7417 195.235 73.854 195.473 73.854 195.762H73.3091C73.3091 195.613 73.2456 195.485 73.1186 195.378C72.9936 195.271 72.8354 195.217 72.644 195.217C72.4468 195.217 72.2925 195.26 72.1811 195.346C72.0698 195.432 72.0142 195.544 72.0142 195.683C72.0142 195.813 72.0659 195.912 72.1694 195.979C72.2729 196.045 72.4595 196.108 72.729 196.169C73.0005 196.229 73.2202 196.302 73.3882 196.386C73.5561 196.47 73.6802 196.571 73.7603 196.69C73.8423 196.808 73.8833 196.951 73.8833 197.121C73.8833 197.404 73.77 197.632 73.5435 197.804C73.3169 197.974 73.0229 198.059 72.6616 198.059C72.4077 198.059 72.1831 198.014 71.9878 197.924C71.7925 197.834 71.6392 197.709 71.5278 197.549C71.4185 197.387 71.3638 197.212 71.3638 197.024H71.9058C71.9155 197.206 71.9878 197.351 72.1226 197.458C72.2593 197.563 72.439 197.616 72.6616 197.616C72.8667 197.616 73.0308 197.575 73.1538 197.493C73.2788 197.409 73.3413 197.298 73.3413 197.159ZM77.396 197.253L78.0054 194.83H78.5474L77.6245 198H77.1851L76.4145 195.598L75.6645 198H75.2251L74.3052 194.83H74.8442L75.4683 197.203L76.2065 194.83H76.6431L77.396 197.253ZM78.9575 196.386C78.9575 196.075 79.0181 195.796 79.1392 195.548C79.2622 195.3 79.4321 195.108 79.6489 194.974C79.8677 194.839 80.1167 194.771 80.396 194.771C80.8276 194.771 81.1763 194.921 81.4419 195.22C81.7095 195.519 81.8433 195.916 81.8433 196.412V196.45C81.8433 196.759 81.7837 197.036 81.6645 197.282C81.5474 197.526 81.3784 197.717 81.1577 197.854C80.939 197.99 80.687 198.059 80.4019 198.059C79.9722 198.059 79.6235 197.909 79.356 197.61C79.0903 197.312 78.9575 196.916 78.9575 196.424V196.386ZM79.5024 196.45C79.5024 196.802 79.5835 197.084 79.7456 197.297C79.9097 197.51 80.1284 197.616 80.4019 197.616C80.6772 197.616 80.896 197.509 81.0581 197.294C81.2202 197.077 81.3013 196.774 81.3013 196.386C81.3013 196.038 81.2183 195.757 81.0522 195.542C80.8882 195.325 80.6694 195.217 80.396 195.217C80.1284 195.217 79.9126 195.323 79.7485 195.536C79.5845 195.749 79.5024 196.054 79.5024 196.45ZM84.0552 195.316C83.9731 195.303 83.8843 195.296 83.7886 195.296C83.4331 195.296 83.1919 195.447 83.0649 195.75V198H82.5229V194.83H83.0503L83.0591 195.196C83.2368 194.913 83.4888 194.771 83.8149 194.771C83.9204 194.771 84.0005 194.785 84.0552 194.812V195.316ZM84.3657 196.389C84.3657 195.902 84.481 195.512 84.7114 195.217C84.9419 194.92 85.2437 194.771 85.6167 194.771C85.9878 194.771 86.2817 194.898 86.4985 195.152V193.5H87.0405V198H86.5425L86.5161 197.66C86.2993 197.926 85.9976 198.059 85.6108 198.059C85.2437 198.059 84.9438 197.908 84.7114 197.607C84.481 197.307 84.3657 196.914 84.3657 196.43V196.389ZM84.9077 196.45C84.9077 196.81 84.9819 197.091 85.1304 197.294C85.2788 197.497 85.4839 197.599 85.7456 197.599C86.0894 197.599 86.3403 197.444 86.4985 197.136V195.68C86.3364 195.381 86.0874 195.231 85.7515 195.231C85.4858 195.231 85.2788 195.334 85.1304 195.539C84.9819 195.744 84.9077 196.048 84.9077 196.45Z" fill="black"/>
<rect x="43.125" y="217.125" width="43.75" height="9.75" rx="4.875" stroke="black" stroke-width="0.25"/>
<path d="M56.6104 223.463H58.9688V224H55.9507V219.023H56.6104V223.463ZM59.4507 222.117C59.4507 221.754 59.5213 221.429 59.6626 221.139C59.8062 220.85 60.0044 220.626 60.2573 220.469C60.5125 220.312 60.8031 220.233 61.1289 220.233C61.6325 220.233 62.0392 220.408 62.3491 220.756C62.6613 221.105 62.8174 221.569 62.8174 222.147V222.192C62.8174 222.552 62.7479 222.875 62.6089 223.163C62.4722 223.447 62.2751 223.67 62.0176 223.829C61.7624 223.989 61.4684 224.068 61.1357 224.068C60.6344 224.068 60.2277 223.894 59.9155 223.545C59.6056 223.197 59.4507 222.735 59.4507 222.161V222.117ZM60.0864 222.192C60.0864 222.602 60.181 222.931 60.3701 223.18C60.5615 223.428 60.8167 223.552 61.1357 223.552C61.457 223.552 61.7122 223.427 61.9014 223.176C62.0905 222.923 62.1851 222.57 62.1851 222.117C62.1851 221.711 62.0882 221.383 61.8945 221.132C61.7031 220.879 61.4479 220.753 61.1289 220.753C60.8167 220.753 60.5649 220.877 60.3735 221.125C60.1821 221.374 60.0864 221.729 60.0864 222.192ZM63.46 222.12C63.46 221.544 63.5933 221.086 63.8599 220.746C64.1265 220.404 64.4797 220.233 64.9194 220.233C65.3706 220.233 65.7227 220.393 65.9756 220.712L66.0063 220.302H66.584V223.911C66.584 224.39 66.4416 224.767 66.1567 225.042C65.8742 225.318 65.4937 225.456 65.0151 225.456C64.7485 225.456 64.4876 225.399 64.2324 225.285C63.9772 225.171 63.7824 225.015 63.6479 224.817L63.9761 224.438C64.2472 224.772 64.5788 224.94 64.9707 224.94C65.2783 224.94 65.5176 224.853 65.6885 224.68C65.8617 224.507 65.9482 224.263 65.9482 223.949V223.631C65.6953 223.923 65.3501 224.068 64.9126 224.068C64.4797 224.068 64.1287 223.894 63.8599 223.545C63.5933 223.197 63.46 222.722 63.46 222.12ZM64.0957 222.192C64.0957 222.609 64.1812 222.937 64.3521 223.176C64.5229 223.413 64.7622 223.532 65.0698 223.532C65.4686 223.532 65.7614 223.351 65.9482 222.988V221.3C65.7546 220.947 65.464 220.77 65.0767 220.77C64.769 220.77 64.5286 220.89 64.3555 221.129C64.1823 221.368 64.0957 221.722 64.0957 222.192ZM68.228 224H67.5957V220.302H68.228V224ZM67.5444 219.321C67.5444 219.218 67.5752 219.132 67.6367 219.061C67.7005 218.99 67.7939 218.955 67.917 218.955C68.04 218.955 68.1335 218.99 68.1973 219.061C68.2611 219.132 68.293 219.218 68.293 219.321C68.293 219.423 68.2611 219.509 68.1973 219.577C68.1335 219.646 68.04 219.68 67.917 219.68C67.7939 219.68 67.7005 219.646 67.6367 219.577C67.5752 219.509 67.5444 219.423 67.5444 219.321ZM69.8413 220.302L69.8618 220.767C70.1444 220.411 70.5135 220.233 70.9692 220.233C71.7508 220.233 72.145 220.674 72.1519 221.556V224H71.5195V221.553C71.5173 221.286 71.4557 221.089 71.335 220.961C71.2165 220.834 71.0308 220.77 70.7778 220.77C70.5728 220.77 70.3927 220.825 70.2378 220.934C70.0828 221.043 69.9621 221.187 69.8755 221.365V224H69.2432V220.302H69.8413Z" fill="black"/>
<rect x="0.5" y="0.5" width="132" height="251" rx="19.5" stroke="black"/>
<defs>
<clipPath id="clip0">
<rect width="98" height="131" fill="white" transform="translate(17 26)"/>
</clipPath>
</defs>
</svg>
