<svg width="131" height="252" viewBox="0 0 131 252" fill="none" xmlns="http://www.w3.org/2000/svg">
<g clip-path="url(#clip0)">
<rect x="0.5" y="0.5" width="130" height="251" rx="19.5" fill="white"/>
<rect x="13" y="60" width="105" height="85" rx="10" fill="#C4C4C4"/>
<path d="M35 134.464C38.2716 130.176 41.9051 125.978 44.7616 121.439C45.9603 119.534 47.3536 116.972 49.1488 115.487C49.925 114.846 51.1171 111.815 52.1101 111.815C52.6975 111.815 55.1591 113.53 55.4006 113.923C56.5626 115.815 58.0483 114.995 59.1297 114.263C63.2113 111.502 66.677 107.512 70.244 104.129C72.1415 102.329 75.1211 100.185 76.4592 98.0071C77.8155 95.7993 83.628 101.356 85.1605 102.496C86.7209 103.657 86.3304 99.8305 86.3304 99.2654C86.3304 96.5107 86.3304 93.7561 86.3304 91.0014C86.3304 87.3127 87.9434 83.7605 88.9993 80.3227C89.3968 79.0287 91.4937 82.0166 91.7413 82.4312C92.8326 84.2585 96.1129 86.1306 97.8834 87.3285C101.006 89.4412 104.686 91.8197 107.243 94.1982C109.557 96.3512 111.677 98.5496 108.047 100.66C106.674 101.458 106.321 102.832 105.049 103.585C102.336 105.19 99.7497 106.61 97.4813 108.72C93.8251 112.121 89.5679 115.593 85.6724 118.854C84.0817 120.186 84.166 121.539 85.6724 123.105C88.6759 126.228 86.6705 127.148 83.1863 128.955C80.5634 130.315 76.8793 132.278 73.8269 132.594C70.8568 132.901 67.303 133.075 64.4675 133.988C61.6015 134.911 58.972 136.301 55.8027 136.301C53.9321 136.301 51.6115 137.349 49.8434 136.879C49.5285 136.795 47.9428 133.265 46.9917 132.628C46.0552 132.001 44.4177 130.08 44.1766 129.295C44.0396 128.849 35.8403 132.901 35 134.464Z" stroke="black" stroke-linecap="round" stroke-linejoin="round"/>
<path d="M30.2373 69.5674H30.8291V70.0098H30.2373V71H29.6924V70.0098H27.75V69.6904L29.6602 66.7344H30.2373V69.5674ZM28.3652 69.5674H29.6924V67.4756L29.6279 67.5928L28.3652 69.5674ZM34.0312 69.0166L33.5098 69.5586V71H32.9473V66.7344H33.5098V68.8438L35.4053 66.7344H36.085L34.4062 68.6182L36.2168 71H35.543L34.0312 69.0166ZM37.0635 67.8301L37.0781 68.1816C37.3105 67.9082 37.624 67.7715 38.0186 67.7715C38.4619 67.7715 38.7637 67.9414 38.9238 68.2812C39.0293 68.1289 39.166 68.0059 39.334 67.9121C39.5039 67.8184 39.7041 67.7715 39.9346 67.7715C40.6299 67.7715 40.9834 68.1396 40.9951 68.876V71H40.4531V68.9082C40.4531 68.6816 40.4014 68.5127 40.2979 68.4014C40.1943 68.2881 40.0205 68.2314 39.7764 68.2314C39.5752 68.2314 39.4082 68.292 39.2754 68.4131C39.1426 68.5322 39.0654 68.6934 39.0439 68.8965V71H38.499V68.9229C38.499 68.4619 38.2734 68.2314 37.8223 68.2314C37.4668 68.2314 37.2236 68.3828 37.0928 68.6855V71H36.5508V67.8301H37.0635ZM25.5293 75.6035H25.9365C26.1924 75.5996 26.3936 75.5322 26.54 75.4014C26.6865 75.2705 26.7598 75.0938 26.7598 74.8711C26.7598 74.3711 26.5107 74.1211 26.0127 74.1211C25.7783 74.1211 25.5908 74.1885 25.4502 74.3232C25.3115 74.4561 25.2422 74.6328 25.2422 74.8535H24.7002C24.7002 74.5156 24.8232 74.2354 25.0693 74.0127C25.3174 73.7881 25.6318 73.6758 26.0127 73.6758C26.415 73.6758 26.7305 73.7822 26.959 73.9951C27.1875 74.208 27.3018 74.5039 27.3018 74.8828C27.3018 75.0684 27.2412 75.248 27.1201 75.4219C27.001 75.5957 26.8379 75.7256 26.6309 75.8115C26.8652 75.8857 27.0459 76.0088 27.1729 76.1807C27.3018 76.3525 27.3662 76.5625 27.3662 76.8105C27.3662 77.1934 27.2412 77.4971 26.9912 77.7217C26.7412 77.9463 26.416 78.0586 26.0156 78.0586C25.6152 78.0586 25.2891 77.9502 25.0371 77.7334C24.7871 77.5166 24.6621 77.2305 24.6621 76.875H25.207C25.207 77.0996 25.2803 77.2793 25.4268 77.4141C25.5732 77.5488 25.7695 77.6162 26.0156 77.6162C26.2773 77.6162 26.4775 77.5479 26.6162 77.4111C26.7549 77.2744 26.8242 77.0781 26.8242 76.8223C26.8242 76.5742 26.748 76.3838 26.5957 76.251C26.4434 76.1182 26.2236 76.0498 25.9365 76.0459H25.5293V75.6035ZM30.7852 76.1807C30.7852 76.8154 30.6768 77.2871 30.46 77.5957C30.2432 77.9043 29.9043 78.0586 29.4434 78.0586C28.9883 78.0586 28.6514 77.9082 28.4326 77.6074C28.2139 77.3047 28.1006 76.8535 28.0928 76.2539V75.5303C28.0928 74.9033 28.2012 74.4375 28.418 74.1328C28.6348 73.8281 28.9746 73.6758 29.4375 73.6758C29.8965 73.6758 30.2344 73.8232 30.4512 74.1182C30.668 74.4111 30.7793 74.8643 30.7852 75.4775V76.1807ZM30.2432 75.4395C30.2432 74.9805 30.1787 74.6465 30.0498 74.4375C29.9209 74.2266 29.7168 74.1211 29.4375 74.1211C29.1602 74.1211 28.958 74.2256 28.8311 74.4346C28.7041 74.6436 28.6387 74.9648 28.6348 75.3984V76.2656C28.6348 76.7266 28.7012 77.0674 28.834 77.2881C28.9688 77.5068 29.1719 77.6162 29.4434 77.6162C29.7109 77.6162 29.9092 77.5127 30.0381 77.3057C30.1689 77.0986 30.2373 76.7725 30.2432 76.3271V75.4395ZM34.1543 76.1807C34.1543 76.8154 34.0459 77.2871 33.8291 77.5957C33.6123 77.9043 33.2734 78.0586 32.8125 78.0586C32.3574 78.0586 32.0205 77.9082 31.8018 77.6074C31.583 77.3047 31.4697 76.8535 31.4619 76.2539V75.5303C31.4619 74.9033 31.5703 74.4375 31.7871 74.1328C32.0039 73.8281 32.3438 73.6758 32.8066 73.6758C33.2656 73.6758 33.6035 73.8232 33.8203 74.1182C34.0371 74.4111 34.1484 74.8643 34.1543 75.4775V76.1807ZM33.6123 75.4395C33.6123 74.9805 33.5479 74.6465 33.4189 74.4375C33.29 74.2266 33.0859 74.1211 32.8066 74.1211C32.5293 74.1211 32.3271 74.2256 32.2002 74.4346C32.0732 74.6436 32.0078 74.9648 32.0039 75.3984V76.2656C32.0039 76.7266 32.0703 77.0674 32.2031 77.2881C32.3379 77.5068 32.541 77.6162 32.8125 77.6162C33.0801 77.6162 33.2783 77.5127 33.4072 77.3057C33.5381 77.0986 33.6064 76.7725 33.6123 76.3271V75.4395ZM39.6152 76.6465C39.5625 77.0977 39.3955 77.4463 39.1143 77.6924C38.835 77.9365 38.4629 78.0586 37.998 78.0586C37.4941 78.0586 37.0898 77.8779 36.7852 77.5166C36.4824 77.1553 36.3311 76.6719 36.3311 76.0664V75.6562C36.3311 75.2598 36.4014 74.9111 36.542 74.6104C36.6846 74.3096 36.8857 74.0791 37.1455 73.9189C37.4053 73.7568 37.7061 73.6758 38.0479 73.6758C38.501 73.6758 38.8643 73.8027 39.1377 74.0566C39.4111 74.3086 39.5703 74.6582 39.6152 75.1055H39.0498C39.001 74.7656 38.8945 74.5195 38.7305 74.3672C38.5684 74.2148 38.3408 74.1387 38.0479 74.1387C37.6885 74.1387 37.4062 74.2715 37.2012 74.5371C36.998 74.8027 36.8965 75.1807 36.8965 75.6709V76.084C36.8965 76.5469 36.9932 76.915 37.1865 77.1885C37.3799 77.4619 37.6504 77.5986 37.998 77.5986C38.3105 77.5986 38.5498 77.5283 38.7158 77.3877C38.8838 77.2451 38.9951 76.998 39.0498 76.6465H39.6152ZM42.2578 78C42.2266 77.9375 42.2012 77.8262 42.1816 77.666C41.9297 77.9277 41.6289 78.0586 41.2793 78.0586C40.9668 78.0586 40.71 77.9707 40.5088 77.7949C40.3096 77.6172 40.21 77.3926 40.21 77.1211C40.21 76.791 40.335 76.5352 40.585 76.3535C40.8369 76.1699 41.1904 76.0781 41.6455 76.0781H42.1729V75.8291C42.1729 75.6396 42.1162 75.4893 42.0029 75.3779C41.8896 75.2646 41.7227 75.208 41.502 75.208C41.3086 75.208 41.1465 75.2568 41.0156 75.3545C40.8848 75.4521 40.8193 75.5703 40.8193 75.709H40.2744C40.2744 75.5508 40.3301 75.3984 40.4414 75.252C40.5547 75.1035 40.707 74.9863 40.8984 74.9004C41.0918 74.8145 41.3037 74.7715 41.5342 74.7715C41.8994 74.7715 42.1855 74.8633 42.3926 75.0469C42.5996 75.2285 42.707 75.4795 42.7148 75.7998V77.2588C42.7148 77.5498 42.752 77.7812 42.8262 77.9531V78H42.2578ZM41.3584 77.5869C41.5283 77.5869 41.6895 77.543 41.8418 77.4551C41.9941 77.3672 42.1045 77.2529 42.1729 77.1123V76.4619H41.748C41.084 76.4619 40.752 76.6562 40.752 77.0449C40.752 77.2148 40.8086 77.3477 40.9219 77.4434C41.0352 77.5391 41.1807 77.5869 41.3584 77.5869ZM44.1533 78H43.6113V73.5H44.1533V78ZM26.5137 82.6035H26.9209C27.1768 82.5996 27.3779 82.5322 27.5244 82.4014C27.6709 82.2705 27.7441 82.0938 27.7441 81.8711C27.7441 81.3711 27.4951 81.1211 26.9971 81.1211C26.7627 81.1211 26.5752 81.1885 26.4346 81.3232C26.2959 81.4561 26.2266 81.6328 26.2266 81.8535H25.6846C25.6846 81.5156 25.8076 81.2354 26.0537 81.0127C26.3018 80.7881 26.6162 80.6758 26.9971 80.6758C27.3994 80.6758 27.7148 80.7822 27.9434 80.9951C28.1719 81.208 28.2861 81.5039 28.2861 81.8828C28.2861 82.0684 28.2256 82.248 28.1045 82.4219C27.9854 82.5957 27.8223 82.7256 27.6152 82.8115C27.8496 82.8857 28.0303 83.0088 28.1572 83.1807C28.2861 83.3525 28.3506 83.5625 28.3506 83.8105C28.3506 84.1934 28.2256 84.4971 27.9756 84.7217C27.7256 84.9463 27.4004 85.0586 27 85.0586C26.5996 85.0586 26.2734 84.9502 26.0215 84.7334C25.7715 84.5166 25.6465 84.2305 25.6465 83.875H26.1914C26.1914 84.0996 26.2646 84.2793 26.4111 84.4141C26.5576 84.5488 26.7539 84.6162 27 84.6162C27.2617 84.6162 27.4619 84.5479 27.6006 84.4111C27.7393 84.2744 27.8086 84.0781 27.8086 83.8223C27.8086 83.5742 27.7324 83.3838 27.5801 83.251C27.4277 83.1182 27.208 83.0498 26.9209 83.0459H26.5137V82.6035ZM29.3438 82.8613L29.5605 80.7344H31.7461V81.2354H30.0205L29.8916 82.3984C30.1006 82.2754 30.3379 82.2139 30.6035 82.2139C30.9922 82.2139 31.3008 82.3428 31.5293 82.6006C31.7578 82.8564 31.8721 83.2031 31.8721 83.6406C31.8721 84.0801 31.7529 84.4268 31.5146 84.6807C31.2783 84.9326 30.9473 85.0586 30.5215 85.0586C30.1445 85.0586 29.8369 84.9541 29.5986 84.7451C29.3604 84.5361 29.2246 84.2471 29.1914 83.8779H29.7041C29.7373 84.1221 29.8242 84.3066 29.9648 84.4316C30.1055 84.5547 30.291 84.6162 30.5215 84.6162C30.7734 84.6162 30.9707 84.5303 31.1133 84.3584C31.2578 84.1865 31.3301 83.9492 31.3301 83.6465C31.3301 83.3613 31.252 83.1328 31.0957 82.9609C30.9414 82.7871 30.7354 82.7002 30.4775 82.7002C30.2412 82.7002 30.0557 82.752 29.9209 82.8555L29.7773 82.9727L29.3438 82.8613ZM34.5176 81.8301L34.5322 82.1816C34.7646 81.9082 35.0781 81.7715 35.4727 81.7715C35.916 81.7715 36.2178 81.9414 36.3779 82.2812C36.4834 82.1289 36.6201 82.0059 36.7881 81.9121C36.958 81.8184 37.1582 81.7715 37.3887 81.7715C38.084 81.7715 38.4375 82.1396 38.4492 82.876V85H37.9072V82.9082C37.9072 82.6816 37.8555 82.5127 37.752 82.4014C37.6484 82.2881 37.4746 82.2314 37.2305 82.2314C37.0293 82.2314 36.8623 82.292 36.7295 82.4131C36.5967 82.5322 36.5195 82.6934 36.498 82.8965V85H35.9531V82.9229C35.9531 82.4619 35.7275 82.2314 35.2764 82.2314C34.9209 82.2314 34.6777 82.3828 34.5469 82.6855V85H34.0049V81.8301H34.5176ZM39.8584 85H39.3164V81.8301H39.8584V85ZM39.2725 80.9893C39.2725 80.9014 39.2988 80.8271 39.3516 80.7666C39.4062 80.7061 39.4863 80.6758 39.5918 80.6758C39.6973 80.6758 39.7773 80.7061 39.832 80.7666C39.8867 80.8271 39.9141 80.9014 39.9141 80.9893C39.9141 81.0771 39.8867 81.1504 39.832 81.209C39.7773 81.2676 39.6973 81.2969 39.5918 81.2969C39.4863 81.2969 39.4062 81.2676 39.3516 81.209C39.2988 81.1504 39.2725 81.0771 39.2725 80.9893ZM41.2412 81.8301L41.2588 82.2285C41.501 81.9238 41.8174 81.7715 42.208 81.7715C42.8779 81.7715 43.2158 82.1494 43.2217 82.9053V85H42.6797V82.9023C42.6777 82.6738 42.625 82.5049 42.5215 82.3955C42.4199 82.2861 42.2607 82.2314 42.0439 82.2314C41.8682 82.2314 41.7139 82.2783 41.5811 82.3721C41.4482 82.4658 41.3447 82.5889 41.2705 82.7412V85H40.7285V81.8301H41.2412Z" fill="black"/>
<rect x="8" y="27" width="20" height="20" rx="5" fill="#747474"/>
<rect x="35" y="27" width="20" height="20" rx="5" fill="#C4C4C4"/>
<rect x="89" y="27" width="20" height="20" rx="5" fill="#C4C4C4"/>
<rect x="62" y="27" width="20" height="20" rx="5" fill="#C4C4C4"/>
<rect x="116" y="27" width="20" height="20" rx="5" fill="#C4C4C4"/>
<path d="M13.2363 31.7344L14.6309 35.2148L16.0254 31.7344H16.7549V36H16.1924V34.3389L16.2451 32.5459L14.8447 36H14.4141L13.0166 32.5547L13.0723 34.3389V36H12.5098V31.7344H13.2363ZM17.5195 34.3857C17.5195 34.0752 17.5801 33.7959 17.7012 33.5479C17.8242 33.2998 17.9941 33.1084 18.2109 32.9736C18.4297 32.8389 18.6787 32.7715 18.958 32.7715C19.3896 32.7715 19.7383 32.9209 20.0039 33.2197C20.2715 33.5186 20.4053 33.916 20.4053 34.4121V34.4502C20.4053 34.7588 20.3457 35.0361 20.2266 35.2822C20.1094 35.5264 19.9404 35.7168 19.7197 35.8535C19.501 35.9902 19.249 36.0586 18.9639 36.0586C18.5342 36.0586 18.1855 35.9092 17.918 35.6104C17.6523 35.3115 17.5195 34.916 17.5195 34.4238V34.3857ZM18.0645 34.4502C18.0645 34.8018 18.1455 35.084 18.3076 35.2969C18.4717 35.5098 18.6904 35.6162 18.9639 35.6162C19.2393 35.6162 19.458 35.5088 19.6201 35.2939C19.7822 35.0771 19.8633 34.7744 19.8633 34.3857C19.8633 34.0381 19.7803 33.7568 19.6143 33.542C19.4502 33.3252 19.2314 33.2168 18.958 33.2168C18.6904 33.2168 18.4746 33.3232 18.3105 33.5361C18.1465 33.749 18.0645 34.0537 18.0645 34.4502ZM21.5977 32.8301L21.6152 33.2285C21.8574 32.9238 22.1738 32.7715 22.5645 32.7715C23.2344 32.7715 23.5723 33.1494 23.5781 33.9053V36H23.0361V33.9023C23.0342 33.6738 22.9814 33.5049 22.8779 33.3955C22.7764 33.2861 22.6172 33.2314 22.4004 33.2314C22.2246 33.2314 22.0703 33.2783 21.9375 33.3721C21.8047 33.4658 21.7012 33.5889 21.627 33.7412V36H21.085V32.8301H21.5977ZM17.7803 43H14.9854V42.6104L16.4619 40.9697C16.6807 40.7217 16.8311 40.5205 16.9131 40.3662C16.9971 40.21 17.0391 40.0488 17.0391 39.8828C17.0391 39.6602 16.9717 39.4775 16.8369 39.335C16.7021 39.1924 16.5225 39.1211 16.2979 39.1211C16.0283 39.1211 15.8184 39.1982 15.668 39.3525C15.5195 39.5049 15.4453 39.7178 15.4453 39.9912H14.9033C14.9033 39.5986 15.0293 39.2812 15.2812 39.0391C15.5352 38.7969 15.874 38.6758 16.2979 38.6758C16.6943 38.6758 17.0078 38.7803 17.2383 38.9893C17.4688 39.1963 17.584 39.4727 17.584 39.8184C17.584 40.2383 17.3164 40.7383 16.7812 41.3184L15.6387 42.5576H17.7803V43ZM18.6035 40.8613L18.8203 38.7344H21.0059V39.2354H19.2803L19.1514 40.3984C19.3604 40.2754 19.5977 40.2139 19.8633 40.2139C20.252 40.2139 20.5605 40.3428 20.7891 40.6006C21.0176 40.8564 21.1318 41.2031 21.1318 41.6406C21.1318 42.0801 21.0127 42.4268 20.7744 42.6807C20.5381 42.9326 20.207 43.0586 19.7812 43.0586C19.4043 43.0586 19.0967 42.9541 18.8584 42.7451C18.6201 42.5361 18.4844 42.2471 18.4512 41.8779H18.9639C18.9971 42.1221 19.084 42.3066 19.2246 42.4316C19.3652 42.5547 19.5508 42.6162 19.7812 42.6162C20.0332 42.6162 20.2305 42.5303 20.373 42.3584C20.5176 42.1865 20.5898 41.9492 20.5898 41.6465C20.5898 41.3613 20.5117 41.1328 20.3555 40.9609C20.2012 40.7871 19.9951 40.7002 19.7373 40.7002C19.501 40.7002 19.3154 40.752 19.1807 40.8555L19.0371 40.9727L18.6035 40.8613Z" fill="black"/>
<path d="M43.5469 32.1973H42.1758V36H41.6162V32.1973H40.248V31.7344H43.5469V32.1973ZM45.7705 35.6865C45.5596 35.9346 45.25 36.0586 44.8418 36.0586C44.5039 36.0586 44.2461 35.9609 44.0684 35.7656C43.8926 35.5684 43.8037 35.2773 43.8018 34.8926V32.8301H44.3438V34.8779C44.3438 35.3584 44.5391 35.5986 44.9297 35.5986C45.3438 35.5986 45.6191 35.4443 45.7559 35.1357V32.8301H46.2979V36H45.7822L45.7705 35.6865ZM48.4395 36.0586C48.0098 36.0586 47.6602 35.918 47.3906 35.6367C47.1211 35.3535 46.9863 34.9756 46.9863 34.5029V34.4033C46.9863 34.0889 47.0459 33.8086 47.165 33.5625C47.2861 33.3145 47.4541 33.1211 47.6689 32.9824C47.8857 32.8418 48.1201 32.7715 48.3721 32.7715C48.7842 32.7715 49.1045 32.9072 49.333 33.1787C49.5615 33.4502 49.6758 33.8389 49.6758 34.3447V34.5703H47.5283C47.5361 34.8828 47.627 35.1357 47.8008 35.3291C47.9766 35.5205 48.1992 35.6162 48.4688 35.6162C48.6602 35.6162 48.8223 35.5771 48.9551 35.499C49.0879 35.4209 49.2041 35.3174 49.3037 35.1885L49.6348 35.4463C49.3691 35.8545 48.9707 36.0586 48.4395 36.0586ZM48.3721 33.2168C48.1533 33.2168 47.9697 33.2969 47.8213 33.457C47.6729 33.6152 47.5811 33.8379 47.5459 34.125H49.1338V34.084C49.1182 33.8086 49.0439 33.5957 48.9111 33.4453C48.7783 33.293 48.5986 33.2168 48.3721 33.2168ZM44.7803 43H41.9854V42.6104L43.4619 40.9697C43.6807 40.7217 43.8311 40.5205 43.9131 40.3662C43.9971 40.21 44.0391 40.0488 44.0391 39.8828C44.0391 39.6602 43.9717 39.4775 43.8369 39.335C43.7021 39.1924 43.5225 39.1211 43.2979 39.1211C43.0283 39.1211 42.8184 39.1982 42.668 39.3525C42.5195 39.5049 42.4453 39.7178 42.4453 39.9912H41.9033C41.9033 39.5986 42.0293 39.2812 42.2812 39.0391C42.5352 38.7969 42.874 38.6758 43.2979 38.6758C43.6943 38.6758 44.0078 38.7803 44.2383 38.9893C44.4688 39.1963 44.584 39.4727 44.584 39.8184C44.584 40.2383 44.3164 40.7383 43.7812 41.3184L42.6387 42.5576H44.7803V43ZM47.4814 38.7314V39.1914H47.3818C46.96 39.1992 46.624 39.3242 46.374 39.5664C46.124 39.8086 45.9795 40.1494 45.9404 40.5889C46.165 40.3311 46.4717 40.2021 46.8604 40.2021C47.2314 40.2021 47.5273 40.333 47.748 40.5947C47.9707 40.8564 48.082 41.1943 48.082 41.6084C48.082 42.0479 47.9619 42.3994 47.7217 42.6631C47.4834 42.9268 47.1631 43.0586 46.7607 43.0586C46.3525 43.0586 46.0215 42.9023 45.7676 42.5898C45.5137 42.2754 45.3867 41.8711 45.3867 41.377V41.1689C45.3867 40.3838 45.5537 39.7842 45.8877 39.3701C46.2236 38.9541 46.7227 38.7412 47.3848 38.7314H47.4814ZM46.7695 40.6533C46.584 40.6533 46.4131 40.709 46.2568 40.8203C46.1006 40.9316 45.9922 41.0713 45.9316 41.2393V41.4385C45.9316 41.79 46.0107 42.0732 46.1689 42.2881C46.3271 42.5029 46.5244 42.6104 46.7607 42.6104C47.0049 42.6104 47.1963 42.5205 47.335 42.3408C47.4756 42.1611 47.5459 41.9258 47.5459 41.6348C47.5459 41.3418 47.4746 41.1055 47.332 40.9258C47.1914 40.7441 47.0039 40.6533 46.7695 40.6533Z" fill="black"/>
<path d="M67.5146 33.6553L67.5967 34.2178L67.7168 33.7109L68.5605 30.7344H69.0352L69.8584 33.7109L69.9756 34.2266L70.0664 33.6523L70.7285 30.7344H71.2939L70.2598 35H69.7471L68.8682 31.8916L68.8008 31.5664L68.7334 31.8916L67.8223 35H67.3096L66.2783 30.7344H66.8408L67.5146 33.6553ZM73.0576 35.0586C72.6279 35.0586 72.2783 34.918 72.0088 34.6367C71.7393 34.3535 71.6045 33.9756 71.6045 33.5029V33.4033C71.6045 33.0889 71.6641 32.8086 71.7832 32.5625C71.9043 32.3145 72.0723 32.1211 72.2871 31.9824C72.5039 31.8418 72.7383 31.7715 72.9902 31.7715C73.4023 31.7715 73.7227 31.9072 73.9512 32.1787C74.1797 32.4502 74.2939 32.8389 74.2939 33.3447V33.5703H72.1465C72.1543 33.8828 72.2451 34.1357 72.4189 34.3291C72.5947 34.5205 72.8174 34.6162 73.0869 34.6162C73.2783 34.6162 73.4404 34.5771 73.5732 34.499C73.7061 34.4209 73.8223 34.3174 73.9219 34.1885L74.2529 34.4463C73.9873 34.8545 73.5889 35.0586 73.0576 35.0586ZM72.9902 32.2168C72.7715 32.2168 72.5879 32.2969 72.4395 32.457C72.291 32.6152 72.1992 32.8379 72.1641 33.125H73.752V33.084C73.7363 32.8086 73.6621 32.5957 73.5293 32.4453C73.3965 32.293 73.2168 32.2168 72.9902 32.2168ZM74.792 33.3887C74.792 32.9023 74.9072 32.5117 75.1377 32.2168C75.3682 31.9199 75.6699 31.7715 76.043 31.7715C76.4141 31.7715 76.708 31.8984 76.9248 32.1523V30.5H77.4668V35H76.9688L76.9424 34.6602C76.7256 34.9258 76.4238 35.0586 76.0371 35.0586C75.6699 35.0586 75.3701 34.9082 75.1377 34.6074C74.9072 34.3066 74.792 33.9141 74.792 33.4297V33.3887ZM75.334 33.4502C75.334 33.8096 75.4082 34.0908 75.5566 34.2939C75.7051 34.4971 75.9102 34.5986 76.1719 34.5986C76.5156 34.5986 76.7666 34.4443 76.9248 34.1357V32.6797C76.7627 32.3809 76.5137 32.2314 76.1777 32.2314C75.9121 32.2314 75.7051 32.334 75.5566 32.5391C75.4082 32.7441 75.334 33.0479 75.334 33.4502ZM71.7803 42H68.9854V41.6104L70.4619 39.9697C70.6807 39.7217 70.8311 39.5205 70.9131 39.3662C70.9971 39.21 71.0391 39.0488 71.0391 38.8828C71.0391 38.6602 70.9717 38.4775 70.8369 38.335C70.7021 38.1924 70.5225 38.1211 70.2979 38.1211C70.0283 38.1211 69.8184 38.1982 69.668 38.3525C69.5195 38.5049 69.4453 38.7178 69.4453 38.9912H68.9033C68.9033 38.5986 69.0293 38.2812 69.2812 38.0391C69.5352 37.7969 69.874 37.6758 70.2979 37.6758C70.6943 37.6758 71.0078 37.7803 71.2383 37.9893C71.4688 38.1963 71.584 38.4727 71.584 38.8184C71.584 39.2383 71.3164 39.7383 70.7812 40.3184L69.6387 41.5576H71.7803V42ZM75.1084 38.0391L73.3418 42H72.7734L74.5342 38.1797H72.2256V37.7344H75.1084V38.0391Z" fill="black"/>
<path d="M97.3447 31.1973H95.9736V35H95.4141V31.1973H94.0459V30.7344H97.3447V31.1973ZM98.4346 32.2139C98.6748 31.9189 98.9873 31.7715 99.3721 31.7715C100.042 31.7715 100.38 32.1494 100.386 32.9053V35H99.8438V32.9023C99.8418 32.6738 99.7891 32.5049 99.6855 32.3955C99.584 32.2861 99.4248 32.2314 99.208 32.2314C99.0322 32.2314 98.8779 32.2783 98.7451 32.3721C98.6123 32.4658 98.5088 32.5889 98.4346 32.7412V35H97.8926V30.5H98.4346V32.2139ZM103.154 34.6865C102.943 34.9346 102.634 35.0586 102.226 35.0586C101.888 35.0586 101.63 34.9609 101.452 34.7656C101.276 34.5684 101.188 34.2773 101.186 33.8926V31.8301H101.728V33.8779C101.728 34.3584 101.923 34.5986 102.313 34.5986C102.728 34.5986 103.003 34.4443 103.14 34.1357V31.8301H103.682V35H103.166L103.154 34.6865ZM98.7803 42H95.9854V41.6104L97.4619 39.9697C97.6807 39.7217 97.8311 39.5205 97.9131 39.3662C97.9971 39.21 98.0391 39.0488 98.0391 38.8828C98.0391 38.6602 97.9717 38.4775 97.8369 38.335C97.7021 38.1924 97.5225 38.1211 97.2979 38.1211C97.0283 38.1211 96.8184 38.1982 96.668 38.3525C96.5195 38.5049 96.4453 38.7178 96.4453 38.9912H95.9033C95.9033 38.5986 96.0293 38.2812 96.2812 38.0391C96.5352 37.7969 96.874 37.6758 97.2979 37.6758C97.6943 37.6758 98.0078 37.7803 98.2383 37.9893C98.4688 38.1963 98.584 38.4727 98.584 38.8184C98.584 39.2383 98.3164 39.7383 97.7812 40.3184L96.6387 41.5576H98.7803V42ZM101.941 38.8477C101.941 39.0605 101.885 39.25 101.771 39.416C101.66 39.582 101.509 39.7119 101.317 39.8057C101.54 39.9014 101.716 40.041 101.845 40.2246C101.976 40.4082 102.041 40.6162 102.041 40.8486C102.041 41.2178 101.916 41.5117 101.666 41.7305C101.418 41.9492 101.091 42.0586 100.685 42.0586C100.274 42.0586 99.9453 41.9492 99.6973 41.7305C99.4512 41.5098 99.3281 41.2158 99.3281 40.8486C99.3281 40.6182 99.3906 40.4102 99.5156 40.2246C99.6426 40.0391 99.8174 39.8984 100.04 39.8027C99.8506 39.709 99.7012 39.5791 99.5918 39.4131C99.4824 39.2471 99.4277 39.0586 99.4277 38.8477C99.4277 38.4883 99.543 38.2031 99.7734 37.9922C100.004 37.7812 100.308 37.6758 100.685 37.6758C101.06 37.6758 101.362 37.7812 101.593 37.9922C101.825 38.2031 101.941 38.4883 101.941 38.8477ZM101.499 40.8369C101.499 40.5986 101.423 40.4043 101.271 40.2539C101.12 40.1035 100.923 40.0283 100.679 40.0283C100.435 40.0283 100.238 40.1025 100.09 40.251C99.9434 40.3994 99.8701 40.5947 99.8701 40.8369C99.8701 41.0791 99.9414 41.2695 100.084 41.4082C100.229 41.5469 100.429 41.6162 100.685 41.6162C100.938 41.6162 101.138 41.5469 101.282 41.4082C101.427 41.2676 101.499 41.0771 101.499 40.8369ZM100.685 38.1211C100.472 38.1211 100.299 38.1875 100.166 38.3203C100.035 38.4512 99.9697 38.6299 99.9697 38.8564C99.9697 39.0732 100.034 39.249 100.163 39.3838C100.294 39.5166 100.468 39.583 100.685 39.583C100.901 39.583 101.074 39.5166 101.203 39.3838C101.334 39.249 101.399 39.0732 101.399 38.8564C101.399 38.6396 101.332 38.4629 101.197 38.3262C101.062 38.1895 100.892 38.1211 100.685 38.1211Z" fill="black"/>
<path d="M125.481 33.1162H123.691V35H123.129V30.7344H125.771V31.1973H123.691V32.6562H125.481V33.1162ZM127.816 32.3164C127.734 32.3027 127.646 32.2959 127.55 32.2959C127.194 32.2959 126.953 32.4473 126.826 32.75V35H126.284V31.8301H126.812L126.82 32.1963C126.998 31.9131 127.25 31.7715 127.576 31.7715C127.682 31.7715 127.762 31.7852 127.816 31.8125V32.3164ZM128.906 35H128.364V31.8301H128.906V35ZM128.32 30.9893C128.32 30.9014 128.347 30.8271 128.399 30.7666C128.454 30.7061 128.534 30.6758 128.64 30.6758C128.745 30.6758 128.825 30.7061 128.88 30.7666C128.935 30.8271 128.962 30.9014 128.962 30.9893C128.962 31.0771 128.935 31.1504 128.88 31.209C128.825 31.2676 128.745 31.2969 128.64 31.2969C128.534 31.2969 128.454 31.2676 128.399 31.209C128.347 31.1504 128.32 31.0771 128.32 30.9893ZM125.78 42H122.985V41.6104L124.462 39.9697C124.681 39.7217 124.831 39.5205 124.913 39.3662C124.997 39.21 125.039 39.0488 125.039 38.8828C125.039 38.6602 124.972 38.4775 124.837 38.335C124.702 38.1924 124.522 38.1211 124.298 38.1211C124.028 38.1211 123.818 38.1982 123.668 38.3525C123.52 38.5049 123.445 38.7178 123.445 38.9912H122.903C122.903 38.5986 123.029 38.2812 123.281 38.0391C123.535 37.7969 123.874 37.6758 124.298 37.6758C124.694 37.6758 125.008 37.7803 125.238 37.9893C125.469 38.1963 125.584 38.4727 125.584 38.8184C125.584 39.2383 125.316 39.7383 124.781 40.3184L123.639 41.5576H125.78V42ZM128.432 40.125C128.318 40.2598 128.183 40.3682 128.024 40.4502C127.868 40.5322 127.696 40.5732 127.509 40.5732C127.263 40.5732 127.048 40.5127 126.864 40.3916C126.683 40.2705 126.542 40.1006 126.442 39.8818C126.343 39.6611 126.293 39.418 126.293 39.1523C126.293 38.8672 126.347 38.6104 126.454 38.3818C126.563 38.1533 126.718 37.9785 126.917 37.8574C127.116 37.7363 127.349 37.6758 127.614 37.6758C128.036 37.6758 128.368 37.834 128.61 38.1504C128.854 38.4648 128.977 38.8945 128.977 39.4395V39.5977C128.977 40.4277 128.812 41.0342 128.484 41.417C128.156 41.7979 127.661 41.9932 126.999 42.0029H126.894V41.5459H127.008C127.455 41.5381 127.799 41.4219 128.039 41.1973C128.279 40.9707 128.41 40.6133 128.432 40.125ZM127.597 40.125C127.778 40.125 127.945 40.0693 128.098 39.958C128.252 39.8467 128.364 39.709 128.435 39.5449V39.3281C128.435 38.9727 128.357 38.6836 128.203 38.4609C128.049 38.2383 127.854 38.127 127.617 38.127C127.379 38.127 127.188 38.2188 127.043 38.4023C126.898 38.584 126.826 38.8242 126.826 39.123C126.826 39.4141 126.896 39.6543 127.034 39.8438C127.175 40.0312 127.362 40.125 127.597 40.125Z" fill="black"/>
<rect x="17" y="159" width="98" height="16" rx="7" fill="#C4C4C4"/>
<path d="M45.0605 156.54H47.082V157H44.4951V152.734H45.0605V156.54ZM47.4951 155.386C47.4951 155.075 47.5557 154.796 47.6768 154.548C47.7998 154.3 47.9697 154.108 48.1865 153.974C48.4053 153.839 48.6543 153.771 48.9336 153.771C49.3652 153.771 49.7139 153.921 49.9795 154.22C50.2471 154.519 50.3809 154.916 50.3809 155.412V155.45C50.3809 155.759 50.3213 156.036 50.2021 156.282C50.085 156.526 49.916 156.717 49.6953 156.854C49.4766 156.99 49.2246 157.059 48.9395 157.059C48.5098 157.059 48.1611 156.909 47.8936 156.61C47.6279 156.312 47.4951 155.916 47.4951 155.424V155.386ZM48.04 155.45C48.04 155.802 48.1211 156.084 48.2832 156.297C48.4473 156.51 48.666 156.616 48.9395 156.616C49.2148 156.616 49.4336 156.509 49.5957 156.294C49.7578 156.077 49.8389 155.774 49.8389 155.386C49.8389 155.038 49.7559 154.757 49.5898 154.542C49.4258 154.325 49.207 154.217 48.9336 154.217C48.666 154.217 48.4502 154.323 48.2861 154.536C48.1221 154.749 48.04 155.054 48.04 155.45ZM50.9316 155.389C50.9316 154.895 51.0459 154.502 51.2744 154.211C51.5029 153.918 51.8057 153.771 52.1826 153.771C52.5693 153.771 52.8711 153.908 53.0879 154.182L53.1143 153.83H53.6094V156.924C53.6094 157.334 53.4873 157.657 53.2432 157.894C53.001 158.13 52.6748 158.248 52.2646 158.248C52.0361 158.248 51.8125 158.199 51.5938 158.102C51.375 158.004 51.208 157.87 51.0928 157.7L51.374 157.375C51.6064 157.662 51.8906 157.806 52.2266 157.806C52.4902 157.806 52.6953 157.731 52.8418 157.583C52.9902 157.435 53.0645 157.226 53.0645 156.956V156.684C52.8477 156.934 52.5518 157.059 52.1768 157.059C51.8057 157.059 51.5049 156.909 51.2744 156.61C51.0459 156.312 50.9316 155.904 50.9316 155.389ZM51.4766 155.45C51.4766 155.808 51.5498 156.089 51.6963 156.294C51.8428 156.497 52.0479 156.599 52.3115 156.599C52.6533 156.599 52.9043 156.443 53.0645 156.133V154.686C52.8984 154.383 52.6494 154.231 52.3174 154.231C52.0537 154.231 51.8477 154.334 51.6992 154.539C51.5508 154.744 51.4766 155.048 51.4766 155.45ZM55.0186 157H54.4766V153.83H55.0186V157ZM54.4326 152.989C54.4326 152.901 54.459 152.827 54.5117 152.767C54.5664 152.706 54.6465 152.676 54.752 152.676C54.8574 152.676 54.9375 152.706 54.9922 152.767C55.0469 152.827 55.0742 152.901 55.0742 152.989C55.0742 153.077 55.0469 153.15 54.9922 153.209C54.9375 153.268 54.8574 153.297 54.752 153.297C54.6465 153.297 54.5664 153.268 54.5117 153.209C54.459 153.15 54.4326 153.077 54.4326 152.989ZM56.4014 153.83L56.4189 154.229C56.6611 153.924 56.9775 153.771 57.3682 153.771C58.0381 153.771 58.376 154.149 58.3818 154.905V157H57.8398V154.902C57.8379 154.674 57.7852 154.505 57.6816 154.396C57.5801 154.286 57.4209 154.231 57.2041 154.231C57.0283 154.231 56.874 154.278 56.7412 154.372C56.6084 154.466 56.5049 154.589 56.4307 154.741V157H55.8887V153.83H56.4014ZM60.7725 157V152.734H62.167C62.6299 152.734 62.9775 152.83 63.21 153.021C63.4443 153.213 63.5615 153.496 63.5615 153.871C63.5615 154.07 63.5049 154.247 63.3916 154.401C63.2783 154.554 63.124 154.672 62.9287 154.756C63.1592 154.82 63.3408 154.943 63.4736 155.125C63.6084 155.305 63.6758 155.52 63.6758 155.77C63.6758 156.152 63.5518 156.453 63.3037 156.672C63.0557 156.891 62.7051 157 62.252 157H60.7725ZM61.335 155.005V156.54H62.2637C62.5254 156.54 62.7314 156.473 62.8818 156.338C63.0342 156.201 63.1104 156.014 63.1104 155.775C63.1104 155.262 62.8311 155.005 62.2725 155.005H61.335ZM61.335 154.554H62.1846C62.4307 154.554 62.627 154.492 62.7734 154.369C62.9219 154.246 62.9961 154.079 62.9961 153.868C62.9961 153.634 62.9277 153.464 62.791 153.358C62.6543 153.251 62.4463 153.197 62.167 153.197H61.335V154.554ZM65.958 154.316C65.876 154.303 65.7871 154.296 65.6914 154.296C65.3359 154.296 65.0947 154.447 64.9678 154.75V157H64.4258V153.83H64.9531L64.9619 154.196C65.1396 153.913 65.3916 153.771 65.7178 153.771C65.8232 153.771 65.9033 153.785 65.958 153.812V154.316ZM67.7158 157.059C67.2861 157.059 66.9365 156.918 66.667 156.637C66.3975 156.354 66.2627 155.976 66.2627 155.503V155.403C66.2627 155.089 66.3223 154.809 66.4414 154.562C66.5625 154.314 66.7305 154.121 66.9453 153.982C67.1621 153.842 67.3965 153.771 67.6484 153.771C68.0605 153.771 68.3809 153.907 68.6094 154.179C68.8379 154.45 68.9521 154.839 68.9521 155.345V155.57H66.8047C66.8125 155.883 66.9033 156.136 67.0771 156.329C67.2529 156.521 67.4756 156.616 67.7451 156.616C67.9365 156.616 68.0986 156.577 68.2314 156.499C68.3643 156.421 68.4805 156.317 68.5801 156.188L68.9111 156.446C68.6455 156.854 68.2471 157.059 67.7158 157.059ZM67.6484 154.217C67.4297 154.217 67.2461 154.297 67.0977 154.457C66.9492 154.615 66.8574 154.838 66.8223 155.125H68.4102V155.084C68.3945 154.809 68.3203 154.596 68.1875 154.445C68.0547 154.293 67.875 154.217 67.6484 154.217ZM71.5391 157C71.5078 156.938 71.4824 156.826 71.4629 156.666C71.2109 156.928 70.9102 157.059 70.5605 157.059C70.248 157.059 69.9912 156.971 69.79 156.795C69.5908 156.617 69.4912 156.393 69.4912 156.121C69.4912 155.791 69.6162 155.535 69.8662 155.354C70.1182 155.17 70.4717 155.078 70.9268 155.078H71.4541V154.829C71.4541 154.64 71.3975 154.489 71.2842 154.378C71.1709 154.265 71.0039 154.208 70.7832 154.208C70.5898 154.208 70.4277 154.257 70.2969 154.354C70.166 154.452 70.1006 154.57 70.1006 154.709H69.5557C69.5557 154.551 69.6113 154.398 69.7227 154.252C69.8359 154.104 69.9883 153.986 70.1797 153.9C70.373 153.814 70.585 153.771 70.8154 153.771C71.1807 153.771 71.4668 153.863 71.6738 154.047C71.8809 154.229 71.9883 154.479 71.9961 154.8V156.259C71.9961 156.55 72.0332 156.781 72.1074 156.953V157H71.5391ZM70.6396 156.587C70.8096 156.587 70.9707 156.543 71.123 156.455C71.2754 156.367 71.3857 156.253 71.4541 156.112V155.462H71.0293C70.3652 155.462 70.0332 155.656 70.0332 156.045C70.0332 156.215 70.0898 156.348 70.2031 156.443C70.3164 156.539 70.4619 156.587 70.6396 156.587ZM73.7305 155.532L73.3906 155.887V157H72.8486V152.5H73.3906V155.222L73.6807 154.873L74.668 153.83H75.3271L74.0938 155.154L75.4707 157H74.835L73.7305 155.532ZM76.1533 157V154.249H75.6523V153.83H76.1533V153.505C76.1533 153.165 76.2441 152.902 76.4258 152.717C76.6074 152.531 76.8643 152.438 77.1963 152.438C77.3213 152.438 77.4453 152.455 77.5684 152.488L77.5391 152.928C77.4473 152.91 77.3496 152.901 77.2461 152.901C77.0703 152.901 76.9346 152.953 76.8389 153.057C76.7432 153.158 76.6953 153.305 76.6953 153.496V153.83H77.3721V154.249H76.6953V157H76.1533ZM79.9297 157C79.8984 156.938 79.873 156.826 79.8535 156.666C79.6016 156.928 79.3008 157.059 78.9512 157.059C78.6387 157.059 78.3818 156.971 78.1807 156.795C77.9814 156.617 77.8818 156.393 77.8818 156.121C77.8818 155.791 78.0068 155.535 78.2568 155.354C78.5088 155.17 78.8623 155.078 79.3174 155.078H79.8447V154.829C79.8447 154.64 79.7881 154.489 79.6748 154.378C79.5615 154.265 79.3945 154.208 79.1738 154.208C78.9805 154.208 78.8184 154.257 78.6875 154.354C78.5566 154.452 78.4912 154.57 78.4912 154.709H77.9463C77.9463 154.551 78.002 154.398 78.1133 154.252C78.2266 154.104 78.3789 153.986 78.5703 153.9C78.7637 153.814 78.9756 153.771 79.2061 153.771C79.5713 153.771 79.8574 153.863 80.0645 154.047C80.2715 154.229 80.3789 154.479 80.3867 154.8V156.259C80.3867 156.55 80.4238 156.781 80.498 156.953V157H79.9297ZM79.0303 156.587C79.2002 156.587 79.3613 156.543 79.5137 156.455C79.666 156.367 79.7764 156.253 79.8447 156.112V155.462H79.4199C78.7559 155.462 78.4238 155.656 78.4238 156.045C78.4238 156.215 78.4805 156.348 78.5938 156.443C78.707 156.539 78.8525 156.587 79.0303 156.587ZM83.082 156.159C83.082 156.013 83.0264 155.899 82.915 155.819C82.8057 155.737 82.6133 155.667 82.3379 155.608C82.0645 155.55 81.8467 155.479 81.6846 155.397C81.5244 155.315 81.4053 155.218 81.3271 155.104C81.251 154.991 81.2129 154.856 81.2129 154.7C81.2129 154.44 81.3223 154.221 81.541 154.041C81.7617 153.861 82.043 153.771 82.3848 153.771C82.7441 153.771 83.0352 153.864 83.2578 154.05C83.4824 154.235 83.5947 154.473 83.5947 154.762H83.0498C83.0498 154.613 82.9863 154.485 82.8594 154.378C82.7344 154.271 82.5762 154.217 82.3848 154.217C82.1875 154.217 82.0332 154.26 81.9219 154.346C81.8105 154.432 81.7549 154.544 81.7549 154.683C81.7549 154.813 81.8066 154.912 81.9102 154.979C82.0137 155.045 82.2002 155.108 82.4697 155.169C82.7412 155.229 82.9609 155.302 83.1289 155.386C83.2969 155.47 83.4209 155.571 83.501 155.69C83.583 155.808 83.624 155.951 83.624 156.121C83.624 156.404 83.5107 156.632 83.2842 156.804C83.0576 156.974 82.7637 157.059 82.4023 157.059C82.1484 157.059 81.9238 157.014 81.7285 156.924C81.5332 156.834 81.3799 156.709 81.2686 156.549C81.1592 156.387 81.1045 156.212 81.1045 156.024H81.6465C81.6562 156.206 81.7285 156.351 81.8633 156.458C82 156.563 82.1797 156.616 82.4023 156.616C82.6074 156.616 82.7715 156.575 82.8945 156.493C83.0195 156.409 83.082 156.298 83.082 156.159ZM85.0654 153.062V153.83H85.6572V154.249H85.0654V156.215C85.0654 156.342 85.0918 156.438 85.1445 156.502C85.1973 156.564 85.2871 156.596 85.4141 156.596C85.4766 156.596 85.5625 156.584 85.6719 156.561V157C85.5293 157.039 85.3906 157.059 85.2559 157.059C85.0137 157.059 84.8311 156.985 84.708 156.839C84.585 156.692 84.5234 156.484 84.5234 156.215V154.249H83.9463V153.83H84.5234V153.062H85.0654Z" fill="black"/>
<path d="M107 170L100.938 165.5H113.062L107 170Z" fill="black"/>
<rect x="17" y="189" width="98" height="16" rx="7" fill="#C4C4C4"/>
<path d="M50.0605 186.54H52.082V187H49.4951V182.734H50.0605V186.54ZM52.4951 185.386C52.4951 185.075 52.5557 184.796 52.6768 184.548C52.7998 184.3 52.9697 184.108 53.1865 183.974C53.4053 183.839 53.6543 183.771 53.9336 183.771C54.3652 183.771 54.7139 183.921 54.9795 184.22C55.2471 184.519 55.3809 184.916 55.3809 185.412V185.45C55.3809 185.759 55.3213 186.036 55.2021 186.282C55.085 186.526 54.916 186.717 54.6953 186.854C54.4766 186.99 54.2246 187.059 53.9395 187.059C53.5098 187.059 53.1611 186.909 52.8936 186.61C52.6279 186.312 52.4951 185.916 52.4951 185.424V185.386ZM53.04 185.45C53.04 185.802 53.1211 186.084 53.2832 186.297C53.4473 186.51 53.666 186.616 53.9395 186.616C54.2148 186.616 54.4336 186.509 54.5957 186.294C54.7578 186.077 54.8389 185.774 54.8389 185.386C54.8389 185.038 54.7559 184.757 54.5898 184.542C54.4258 184.325 54.207 184.217 53.9336 184.217C53.666 184.217 53.4502 184.323 53.2861 184.536C53.1221 184.749 53.04 185.054 53.04 185.45ZM55.9316 185.389C55.9316 184.895 56.0459 184.502 56.2744 184.211C56.5029 183.918 56.8057 183.771 57.1826 183.771C57.5693 183.771 57.8711 183.908 58.0879 184.182L58.1143 183.83H58.6094V186.924C58.6094 187.334 58.4873 187.657 58.2432 187.894C58.001 188.13 57.6748 188.248 57.2646 188.248C57.0361 188.248 56.8125 188.199 56.5938 188.102C56.375 188.004 56.208 187.87 56.0928 187.7L56.374 187.375C56.6064 187.662 56.8906 187.806 57.2266 187.806C57.4902 187.806 57.6953 187.731 57.8418 187.583C57.9902 187.435 58.0645 187.226 58.0645 186.956V186.684C57.8477 186.934 57.5518 187.059 57.1768 187.059C56.8057 187.059 56.5049 186.909 56.2744 186.61C56.0459 186.312 55.9316 185.904 55.9316 185.389ZM56.4766 185.45C56.4766 185.808 56.5498 186.089 56.6963 186.294C56.8428 186.497 57.0479 186.599 57.3115 186.599C57.6533 186.599 57.9043 186.443 58.0645 186.133V184.686C57.8984 184.383 57.6494 184.231 57.3174 184.231C57.0537 184.231 56.8477 184.334 56.6992 184.539C56.5508 184.744 56.4766 185.048 56.4766 185.45ZM60.0186 187H59.4766V183.83H60.0186V187ZM59.4326 182.989C59.4326 182.901 59.459 182.827 59.5117 182.767C59.5664 182.706 59.6465 182.676 59.752 182.676C59.8574 182.676 59.9375 182.706 59.9922 182.767C60.0469 182.827 60.0742 182.901 60.0742 182.989C60.0742 183.077 60.0469 183.15 59.9922 183.209C59.9375 183.268 59.8574 183.297 59.752 183.297C59.6465 183.297 59.5664 183.268 59.5117 183.209C59.459 183.15 59.4326 183.077 59.4326 182.989ZM61.4014 183.83L61.4189 184.229C61.6611 183.924 61.9775 183.771 62.3682 183.771C63.0381 183.771 63.376 184.149 63.3818 184.905V187H62.8398V184.902C62.8379 184.674 62.7852 184.505 62.6816 184.396C62.5801 184.286 62.4209 184.231 62.2041 184.231C62.0283 184.231 61.874 184.278 61.7412 184.372C61.6084 184.466 61.5049 184.589 61.4307 184.741V187H60.8887V183.83H61.4014ZM66.3379 186.54H68.3594V187H65.7725V182.734H66.3379V186.54ZM70.7441 186.687C70.5332 186.935 70.2236 187.059 69.8154 187.059C69.4775 187.059 69.2197 186.961 69.042 186.766C68.8662 186.568 68.7773 186.277 68.7754 185.893V183.83H69.3174V185.878C69.3174 186.358 69.5127 186.599 69.9033 186.599C70.3174 186.599 70.5928 186.444 70.7295 186.136V183.83H71.2715V187H70.7559L70.7441 186.687ZM72.6104 183.83L72.6279 184.229C72.8701 183.924 73.1865 183.771 73.5771 183.771C74.2471 183.771 74.585 184.149 74.5908 184.905V187H74.0488V184.902C74.0469 184.674 73.9941 184.505 73.8906 184.396C73.7891 184.286 73.6299 184.231 73.4131 184.231C73.2373 184.231 73.083 184.278 72.9502 184.372C72.8174 184.466 72.7139 184.589 72.6396 184.741V187H72.0977V183.83H72.6104ZM76.6797 186.616C76.873 186.616 77.042 186.558 77.1865 186.44C77.3311 186.323 77.4111 186.177 77.4268 186.001H77.9395C77.9297 186.183 77.8672 186.355 77.752 186.52C77.6367 186.684 77.4824 186.814 77.2891 186.912C77.0977 187.01 76.8945 187.059 76.6797 187.059C76.248 187.059 75.9043 186.915 75.6484 186.628C75.3945 186.339 75.2676 185.944 75.2676 185.444V185.354C75.2676 185.045 75.3242 184.771 75.4375 184.53C75.5508 184.29 75.7129 184.104 75.9238 183.971C76.1367 183.838 76.3877 183.771 76.6768 183.771C77.0322 183.771 77.3271 183.878 77.5615 184.091C77.7979 184.304 77.9238 184.58 77.9395 184.92H77.4268C77.4111 184.715 77.333 184.547 77.1924 184.416C77.0537 184.283 76.8818 184.217 76.6768 184.217C76.4014 184.217 76.1875 184.316 76.0352 184.516C75.8848 184.713 75.8096 184.999 75.8096 185.374V185.477C75.8096 185.842 75.8848 186.123 76.0352 186.32C76.1855 186.518 76.4004 186.616 76.6797 186.616ZM79.0908 184.214C79.3311 183.919 79.6436 183.771 80.0283 183.771C80.6982 183.771 81.0361 184.149 81.042 184.905V187H80.5V184.902C80.498 184.674 80.4453 184.505 80.3418 184.396C80.2402 184.286 80.0811 184.231 79.8643 184.231C79.6885 184.231 79.5342 184.278 79.4014 184.372C79.2686 184.466 79.165 184.589 79.0908 184.741V187H78.5488V182.5H79.0908V184.214Z" fill="black"/>
<path d="M107 200L100.938 195.5H113.062L107 200Z" fill="black"/>
<rect x="17" y="220" width="98" height="16" rx="7" fill="#C4C4C4"/>
<path d="M50.0605 216.54H52.082V217H49.4951V212.734H50.0605V216.54ZM52.4951 215.386C52.4951 215.075 52.5557 214.796 52.6768 214.548C52.7998 214.3 52.9697 214.108 53.1865 213.974C53.4053 213.839 53.6543 213.771 53.9336 213.771C54.3652 213.771 54.7139 213.921 54.9795 214.22C55.2471 214.519 55.3809 214.916 55.3809 215.412V215.45C55.3809 215.759 55.3213 216.036 55.2021 216.282C55.085 216.526 54.916 216.717 54.6953 216.854C54.4766 216.99 54.2246 217.059 53.9395 217.059C53.5098 217.059 53.1611 216.909 52.8936 216.61C52.6279 216.312 52.4951 215.916 52.4951 215.424V215.386ZM53.04 215.45C53.04 215.802 53.1211 216.084 53.2832 216.297C53.4473 216.51 53.666 216.616 53.9395 216.616C54.2148 216.616 54.4336 216.509 54.5957 216.294C54.7578 216.077 54.8389 215.774 54.8389 215.386C54.8389 215.038 54.7559 214.757 54.5898 214.542C54.4258 214.325 54.207 214.217 53.9336 214.217C53.666 214.217 53.4502 214.323 53.2861 214.536C53.1221 214.749 53.04 215.054 53.04 215.45ZM55.9316 215.389C55.9316 214.895 56.0459 214.502 56.2744 214.211C56.5029 213.918 56.8057 213.771 57.1826 213.771C57.5693 213.771 57.8711 213.908 58.0879 214.182L58.1143 213.83H58.6094V216.924C58.6094 217.334 58.4873 217.657 58.2432 217.894C58.001 218.13 57.6748 218.248 57.2646 218.248C57.0361 218.248 56.8125 218.199 56.5938 218.102C56.375 218.004 56.208 217.87 56.0928 217.7L56.374 217.375C56.6064 217.662 56.8906 217.806 57.2266 217.806C57.4902 217.806 57.6953 217.731 57.8418 217.583C57.9902 217.435 58.0645 217.226 58.0645 216.956V216.684C57.8477 216.934 57.5518 217.059 57.1768 217.059C56.8057 217.059 56.5049 216.909 56.2744 216.61C56.0459 216.312 55.9316 215.904 55.9316 215.389ZM56.4766 215.45C56.4766 215.808 56.5498 216.089 56.6963 216.294C56.8428 216.497 57.0479 216.599 57.3115 216.599C57.6533 216.599 57.9043 216.443 58.0645 216.133V214.686C57.8984 214.383 57.6494 214.231 57.3174 214.231C57.0537 214.231 56.8477 214.334 56.6992 214.539C56.5508 214.744 56.4766 215.048 56.4766 215.45ZM60.0186 217H59.4766V213.83H60.0186V217ZM59.4326 212.989C59.4326 212.901 59.459 212.827 59.5117 212.767C59.5664 212.706 59.6465 212.676 59.752 212.676C59.8574 212.676 59.9375 212.706 59.9922 212.767C60.0469 212.827 60.0742 212.901 60.0742 212.989C60.0742 213.077 60.0469 213.15 59.9922 213.209C59.9375 213.268 59.8574 213.297 59.752 213.297C59.6465 213.297 59.5664 213.268 59.5117 213.209C59.459 213.15 59.4326 213.077 59.4326 212.989ZM61.4014 213.83L61.4189 214.229C61.6611 213.924 61.9775 213.771 62.3682 213.771C63.0381 213.771 63.376 214.149 63.3818 214.905V217H62.8398V214.902C62.8379 214.674 62.7852 214.505 62.6816 214.396C62.5801 214.286 62.4209 214.231 62.2041 214.231C62.0283 214.231 61.874 214.278 61.7412 214.372C61.6084 214.466 61.5049 214.589 61.4307 214.741V217H60.8887V213.83H61.4014ZM65.7725 217V212.734H66.9766C67.3477 212.734 67.6758 212.816 67.9609 212.98C68.2461 213.145 68.4658 213.378 68.6201 213.681C68.7764 213.983 68.8555 214.331 68.8574 214.724V214.996C68.8574 215.398 68.7793 215.751 68.623 216.054C68.4688 216.356 68.2471 216.589 67.958 216.751C67.6709 216.913 67.3359 216.996 66.9531 217H65.7725ZM66.335 213.197V216.54H66.9268C67.3604 216.54 67.6973 216.405 67.9375 216.136C68.1797 215.866 68.3008 215.482 68.3008 214.984V214.735C68.3008 214.251 68.1865 213.875 67.958 213.607C67.7314 213.338 67.4092 213.201 66.9912 213.197H66.335ZM70.2139 217H69.6719V213.83H70.2139V217ZM69.6279 212.989C69.6279 212.901 69.6543 212.827 69.707 212.767C69.7617 212.706 69.8418 212.676 69.9473 212.676C70.0527 212.676 70.1328 212.706 70.1875 212.767C70.2422 212.827 70.2695 212.901 70.2695 212.989C70.2695 213.077 70.2422 213.15 70.1875 213.209C70.1328 213.268 70.0527 213.297 69.9473 213.297C69.8418 213.297 69.7617 213.268 69.707 213.209C69.6543 213.15 69.6279 213.077 69.6279 212.989ZM71.5967 213.83L71.6143 214.229C71.8564 213.924 72.1729 213.771 72.5635 213.771C73.2334 213.771 73.5713 214.149 73.5771 214.905V217H73.0352V214.902C73.0332 214.674 72.9805 214.505 72.877 214.396C72.7754 214.286 72.6162 214.231 72.3994 214.231C72.2236 214.231 72.0693 214.278 71.9365 214.372C71.8037 214.466 71.7002 214.589 71.626 214.741V217H71.084V213.83H71.5967ZM74.9072 213.83L74.9248 214.229C75.167 213.924 75.4834 213.771 75.874 213.771C76.5439 213.771 76.8818 214.149 76.8877 214.905V217H76.3457V214.902C76.3438 214.674 76.291 214.505 76.1875 214.396C76.0859 214.286 75.9268 214.231 75.71 214.231C75.5342 214.231 75.3799 214.278 75.2471 214.372C75.1143 214.466 75.0107 214.589 74.9365 214.741V217H74.3945V213.83H74.9072ZM79.0205 217.059C78.5908 217.059 78.2412 216.918 77.9717 216.637C77.7021 216.354 77.5674 215.976 77.5674 215.503V215.403C77.5674 215.089 77.627 214.809 77.7461 214.562C77.8672 214.314 78.0352 214.121 78.25 213.982C78.4668 213.842 78.7012 213.771 78.9531 213.771C79.3652 213.771 79.6855 213.907 79.9141 214.179C80.1426 214.45 80.2568 214.839 80.2568 215.345V215.57H78.1094C78.1172 215.883 78.208 216.136 78.3818 216.329C78.5576 216.521 78.7803 216.616 79.0498 216.616C79.2412 216.616 79.4033 216.577 79.5361 216.499C79.6689 216.421 79.7852 216.317 79.8848 216.188L80.2158 216.446C79.9502 216.854 79.5518 217.059 79.0205 217.059ZM78.9531 214.217C78.7344 214.217 78.5508 214.297 78.4023 214.457C78.2539 214.615 78.1621 214.838 78.127 215.125H79.7148V215.084C79.6992 214.809 79.625 214.596 79.4922 214.445C79.3594 214.293 79.1797 214.217 78.9531 214.217ZM82.4189 214.316C82.3369 214.303 82.248 214.296 82.1523 214.296C81.7969 214.296 81.5557 214.447 81.4287 214.75V217H80.8867V213.83H81.4141L81.4229 214.196C81.6006 213.913 81.8525 213.771 82.1787 213.771C82.2842 213.771 82.3643 213.785 82.4189 213.812V214.316Z" fill="black"/>
<path d="M107 231L100.938 226.5H113.062L107 231Z" fill="black"/>
</g>
<rect x="0.5" y="0.5" width="130" height="251" rx="19.5" stroke="black"/>
<defs>
<clipPath id="clip0">
</clipPath>
</defs>
</svg>
