<svg width="149" height="41" viewBox="0 0 149 41" fill="none" xmlns="http://www.w3.org/2000/svg">
<g clip-path="url(#clip0)">
<path d="M10.4037 10.3843C10.5597 8.95071 10.9619 8.45308 12.5583 8.41974H23.1874C31.1872 8.52762 32.517 10.2678 29.4456 18.6637C29.4456 18.6637 28.2398 21.8814 25.6293 23.7155C24.7527 24.3232 24.8654 24.8493 25.6293 25.9607L28.0711 30.0302C29.0536 31.6604 29.1024 32.3294 26.922 32.4158H10.4037C8.86586 32.3596 8.44176 32.0235 8.68004 30.7319L10.4037 10.3843Z" fill="#C4C4C4" stroke="black"/>
<path d="M25.9343 8.7004L19.7578 15.5765C19.4064 16.198 18.9034 16.3637 17.6033 16.4184H15.8796C13.9572 16.3925 12.986 16.4766 13.1505 18.383V27.364C13.6122 30.5838 14.2855 31.4586 15.8796 32.1352C18.2978 33.1308 18.2416 32.4158 18.2416 32.4158C18.2416 32.4158 18.2661 31.3871 17.8107 30.8722C17.3554 30.3574 17.5929 27.6511 17.8107 26.5221C18.0286 25.3931 18.8781 24.5575 19.7578 23.5752C20.6376 22.5929 20.1708 21.6106 20.6017 21.1896C21.0326 20.7686 30.8818 11.3666 30.8818 11.3666C29.9686 9.56556 28.9142 8.75308 25.9343 8.7004Z" fill="black" stroke="black"/>
<rect x="4.80908" y="4.70993" width="30.0257" height="31.5561" rx="7.5" stroke="black"/>
<line x1="14.6709" y1="4.27116" x2="14.6709" y2="0.500004" stroke="black" stroke-linecap="round" stroke-linejoin="round"/>
<line x1="12.0854" y1="4.27116" x2="12.0854" y2="0.500004" stroke="black" stroke-linecap="round" stroke-linejoin="round"/>
<line x1="9.5" y1="4.27116" x2="9.5" y2="0.500004" stroke="black" stroke-linecap="round" stroke-linejoin="round"/>
<line x1="25.0127" y1="4.27118" x2="25.0127" y2="0.500019" stroke="black" stroke-linecap="round" stroke-linejoin="round"/>
<line x1="22.4275" y1="4.27118" x2="22.4275" y2="0.500019" stroke="black" stroke-linecap="round" stroke-linejoin="round"/>
<line x1="19.8418" y1="4.27118" x2="19.8418" y2="0.500019" stroke="black" stroke-linecap="round" stroke-linejoin="round"/>
<line x1="17.2563" y1="4.27118" x2="17.2563" y2="0.500019" stroke="black" stroke-linecap="round" stroke-linejoin="round"/>
<line x1="29.8967" y1="4.27116" x2="29.8967" y2="0.500004" stroke="black" stroke-linecap="round" stroke-linejoin="round"/>
<line x1="27.3113" y1="4.27118" x2="27.3113" y2="0.500019" stroke="black" stroke-linecap="round" stroke-linejoin="round"/>
<line x1="15.6709" y1="40.2712" x2="15.6709" y2="36.5" stroke="black" stroke-linecap="round" stroke-linejoin="round"/>
<line x1="13.0854" y1="40.2712" x2="13.0854" y2="36.5" stroke="black" stroke-linecap="round" stroke-linejoin="round"/>
<line x1="10.5" y1="40.2712" x2="10.5" y2="36.5" stroke="black" stroke-linecap="round" stroke-linejoin="round"/>
<line x1="26.354" y1="40.2712" x2="26.354" y2="36.5" stroke="black" stroke-linecap="round" stroke-linejoin="round"/>
<line x1="23.7688" y1="40.2712" x2="23.7688" y2="36.5" stroke="black" stroke-linecap="round" stroke-linejoin="round"/>
<line x1="21.1831" y1="40.2712" x2="21.1831" y2="36.5" stroke="black" stroke-linecap="round" stroke-linejoin="round"/>
<line x1="18.5977" y1="40.2712" x2="18.5977" y2="36.5" stroke="black" stroke-linecap="round" stroke-linejoin="round"/>
<line x1="29.281" y1="40.2712" x2="29.281" y2="36.5" stroke="black" stroke-linecap="round" stroke-linejoin="round"/>
<line x1="39.5" y1="25.1505" x2="35.6163" y2="25.1505" stroke="black" stroke-linecap="round" stroke-linejoin="round"/>
<line x1="39.5" y1="27.6764" x2="35.6163" y2="27.6764" stroke="black" stroke-linecap="round" stroke-linejoin="round"/>
<line x1="39.5" y1="30.2023" x2="35.6163" y2="30.2023" stroke="black" stroke-linecap="round" stroke-linejoin="round"/>
<line x1="39.5" y1="15.0469" x2="35.6163" y2="15.0469" stroke="black" stroke-linecap="round" stroke-linejoin="round"/>
<line x1="39.5" y1="17.5728" x2="35.6163" y2="17.5728" stroke="black" stroke-linecap="round" stroke-linejoin="round"/>
<line x1="39.5" y1="20.0987" x2="35.6163" y2="20.0987" stroke="black" stroke-linecap="round" stroke-linejoin="round"/>
<line x1="39.5" y1="22.6246" x2="35.6163" y2="22.6246" stroke="black" stroke-linecap="round" stroke-linejoin="round"/>
<line x1="39.5" y1="10.2758" x2="35.6163" y2="10.2758" stroke="black" stroke-linecap="round" stroke-linejoin="round"/>
<line x1="39.5" y1="12.8016" x2="35.6163" y2="12.8016" stroke="black" stroke-linecap="round" stroke-linejoin="round"/>
<line x1="4.38379" y1="24.3747" x2="0.500103" y2="24.3747" stroke="black" stroke-linecap="round" stroke-linejoin="round"/>
<line x1="4.38379" y1="26.9007" x2="0.500103" y2="26.9007" stroke="black" stroke-linecap="round" stroke-linejoin="round"/>
<line x1="4.38379" y1="29.4266" x2="0.500103" y2="29.4266" stroke="black" stroke-linecap="round" stroke-linejoin="round"/>
<line x1="4.38379" y1="14.2711" x2="0.500103" y2="14.2711" stroke="black" stroke-linecap="round" stroke-linejoin="round"/>
<line x1="4.38379" y1="16.797" x2="0.500103" y2="16.797" stroke="black" stroke-linecap="round" stroke-linejoin="round"/>
<line x1="4.38379" y1="19.3229" x2="0.500103" y2="19.3229" stroke="black" stroke-linecap="round" stroke-linejoin="round"/>
<line x1="4.38379" y1="21.8488" x2="0.500103" y2="21.8488" stroke="black" stroke-linecap="round" stroke-linejoin="round"/>
<line x1="4.38379" y1="9.5" x2="0.500103" y2="9.5" stroke="black" stroke-linecap="round" stroke-linejoin="round"/>
<line x1="4.38379" y1="12.0259" x2="0.500103" y2="12.0259" stroke="black" stroke-linecap="round" stroke-linejoin="round"/>
<path d="M42.6698 34V12.7H51.6698C52.5898 12.7 53.4298 12.89 54.1898 13.27C54.9698 13.65 55.6398 14.17 56.1998 14.83C56.7598 15.47 57.1898 16.19 57.4898 16.99C57.8098 17.77 57.9698 18.57 57.9698 19.39C57.9698 20.43 57.7698 21.4 57.3698 22.3C56.9898 23.2 56.4398 23.96 55.7198 24.58C54.9998 25.2 54.1698 25.6 53.2298 25.78L58.4498 34H56.0798L51.0698 26.14H44.7698V34H42.6698ZM44.7698 24.28H51.7298C52.5698 24.28 53.2998 24.05 53.9198 23.59C54.5398 23.11 55.0198 22.5 55.3598 21.76C55.6998 21.02 55.8698 20.23 55.8698 19.39C55.8698 18.53 55.6698 17.74 55.2698 17.02C54.8898 16.28 54.3698 15.69 53.7098 15.25C53.0498 14.79 52.3298 14.56 51.5498 14.56H44.7698V24.28ZM70.9394 34.15C69.2594 34.15 67.8394 33.85 66.6794 33.25C65.5394 32.65 64.6194 31.84 63.9194 30.82C63.2194 29.8 62.7194 28.66 62.4194 27.4C62.1194 26.12 61.9694 24.8 61.9694 23.44V12.7H64.0394V23.44C64.0394 24.56 64.1494 25.65 64.3694 26.71C64.6094 27.75 64.9894 28.69 65.5094 29.53C66.0294 30.37 66.7294 31.04 67.6094 31.54C68.4894 32.02 69.5894 32.26 70.9094 32.26C72.2694 32.26 73.3894 32.01 74.2694 31.51C75.1694 31.01 75.8794 30.34 76.3994 29.5C76.9194 28.64 77.2794 27.69 77.4794 26.65C77.6994 25.59 77.8094 24.52 77.8094 23.44V12.7H79.9094V23.44C79.9094 24.86 79.7494 26.22 79.4294 27.52C79.1094 28.8 78.5894 29.94 77.8694 30.94C77.1694 31.94 76.2494 32.73 75.1094 33.31C73.9694 33.87 72.5794 34.15 70.9394 34.15ZM87.0158 16.57V34H84.9158V12.7H86.6558L100.636 30.46V12.73H102.736V34H100.786L87.0158 16.57ZM107.67 15.1V12.1H109.71V15.1H107.67ZM107.67 34V18.37H109.71V34H107.67ZM119.333 34.3C118.053 34.3 116.863 34.09 115.763 33.67C114.683 33.23 113.733 32.59 112.913 31.75L113.753 30.31C114.633 31.13 115.513 31.73 116.393 32.11C117.293 32.47 118.243 32.65 119.243 32.65C120.443 32.65 121.423 32.41 122.183 31.93C122.963 31.43 123.353 30.72 123.353 29.8C123.353 29.18 123.163 28.71 122.783 28.39C122.423 28.05 121.893 27.78 121.193 27.58C120.513 27.38 119.693 27.15 118.733 26.89C117.653 26.59 116.743 26.28 116.003 25.96C115.283 25.62 114.733 25.2 114.353 24.7C113.993 24.18 113.813 23.51 113.813 22.69C113.813 21.69 114.063 20.85 114.563 20.17C115.083 19.49 115.783 18.98 116.663 18.64C117.563 18.28 118.563 18.1 119.663 18.1C120.863 18.1 121.923 18.29 122.843 18.67C123.763 19.05 124.513 19.58 125.093 20.26L124.103 21.64C123.563 21 122.893 20.53 122.093 20.23C121.313 19.91 120.463 19.75 119.543 19.75C118.903 19.75 118.293 19.84 117.713 20.02C117.133 20.18 116.653 20.46 116.273 20.86C115.913 21.24 115.733 21.77 115.733 22.45C115.733 23.29 116.043 23.87 116.663 24.19C117.283 24.51 118.223 24.85 119.483 25.21C120.663 25.53 121.693 25.85 122.573 26.17C123.453 26.49 124.133 26.92 124.613 27.46C125.093 27.98 125.333 28.71 125.333 29.65C125.333 31.11 124.783 32.25 123.683 33.07C122.583 33.89 121.133 34.3 119.333 34.3ZM128.705 15.1V12.1H130.745V15.1H128.705ZM128.705 34V18.37H130.745V34H128.705ZM142.018 34.3C140.498 34.3 139.148 33.93 137.968 33.19C136.788 32.43 135.858 31.44 135.178 30.22C134.498 28.98 134.158 27.62 134.158 26.14C134.158 24.66 134.488 23.32 135.148 22.12C135.808 20.9 136.728 19.93 137.908 19.21C139.088 18.47 140.448 18.1 141.988 18.1C143.448 18.1 144.728 18.44 145.828 19.12C146.948 19.78 147.788 20.68 148.348 21.82L146.368 22.45C145.928 21.65 145.308 21.03 144.508 20.59C143.728 20.13 142.858 19.9 141.898 19.9C140.838 19.9 139.878 20.17 139.018 20.71C138.178 21.25 137.498 22 136.978 22.96C136.478 23.9 136.228 24.96 136.228 26.14C136.228 27.32 136.488 28.39 137.008 29.35C137.528 30.31 138.218 31.08 139.078 31.66C139.938 32.22 140.888 32.5 141.928 32.5C142.608 32.5 143.268 32.38 143.908 32.14C144.548 31.9 145.098 31.58 145.558 31.18C146.018 30.76 146.328 30.31 146.488 29.83L148.498 30.43C148.218 31.17 147.758 31.84 147.118 32.44C146.478 33.02 145.718 33.48 144.838 33.82C143.958 34.14 143.018 34.3 142.018 34.3Z" fill="black"/>
</g>
<defs>
<clipPath id="clip0">
<rect width="149" height="41" fill="white"/>
</clipPath>
</defs>
</svg>
